<svg xmlns="http://www.w3.org/2000/svg" xmlns:xlink="http://www.w3.org/1999/xlink" width="800" zoomAndPan="magnify" viewBox="0 0 600 599.999999" height="800" preserveAspectRatio="xMidYMid meet" version="1.0"><defs><clipPath id="id1"><path d="M 9.742188 6 L 590.242188 6 L 590.242188 594 L 9.742188 594 Z M 9.742188 6 " clip-rule="nonzero"/></clipPath></defs><g clip-path="url(#id1)"><path fill="#0467ff" d="M 590.242188 300 C 590.242188 304.808594 590.125 309.613281 589.894531 314.414062 C 589.660156 319.214844 589.3125 324.007812 588.84375 328.792969 C 588.378906 333.578125 587.796875 338.347656 587.101562 343.101562 C 586.40625 347.859375 585.59375 352.59375 584.664062 357.308594 C 583.738281 362.023438 582.699219 366.710938 581.542969 371.375 C 580.390625 376.039062 579.125 380.671875 577.746094 385.269531 C 576.367188 389.871094 574.875 394.433594 573.277344 398.960938 C 571.675781 403.488281 569.96875 407.972656 568.148438 412.414062 C 566.332031 416.855469 564.40625 421.246094 562.375 425.59375 C 560.34375 429.9375 558.210938 434.230469 555.972656 438.472656 C 553.730469 442.710938 551.390625 446.894531 548.949219 451.015625 C 546.507812 455.140625 543.964844 459.199219 541.328125 463.195312 C 538.6875 467.195312 535.953125 471.125 533.125 474.984375 C 530.292969 478.847656 527.371094 482.636719 524.359375 486.351562 C 521.347656 490.066406 518.242188 493.707031 515.054688 497.269531 C 511.863281 500.832031 508.589844 504.3125 505.230469 507.710938 C 501.871094 511.109375 498.433594 514.421875 494.914062 517.652344 C 491.394531 520.878906 487.796875 524.019531 484.125 527.070312 C 480.453125 530.117188 476.710938 533.074219 472.894531 535.9375 C 469.078125 538.804688 465.195312 541.570312 461.246094 544.242188 C 457.296875 546.910156 453.285156 549.484375 449.210938 551.953125 C 445.136719 554.425781 441.003906 556.792969 436.816406 559.0625 C 432.625 561.328125 428.386719 563.488281 424.089844 565.542969 C 419.796875 567.597656 415.457031 569.546875 411.066406 571.386719 C 406.679688 573.226562 402.246094 574.957031 397.773438 576.574219 C 393.304688 578.195312 388.792969 579.703125 384.25 581.097656 C 379.703125 582.492188 375.125 583.773438 370.519531 584.941406 C 365.910156 586.109375 361.277344 587.164062 356.617188 588.101562 C 351.960938 589.039062 347.28125 589.859375 342.582031 590.566406 C 337.882812 591.273438 333.167969 591.859375 328.441406 592.332031 C 323.714844 592.804688 318.980469 593.15625 314.234375 593.390625 C 309.492188 593.628906 304.742188 593.746094 299.992188 593.746094 C 295.242188 593.746094 290.496094 593.628906 285.75 593.390625 C 281.007812 593.15625 276.269531 592.804688 271.542969 592.332031 C 266.816406 591.859375 262.101562 591.273438 257.40625 590.566406 C 252.707031 589.863281 248.027344 589.039062 243.367188 588.101562 C 238.710938 587.164062 234.074219 586.109375 229.46875 584.941406 C 224.859375 583.773438 220.285156 582.492188 215.738281 581.097656 C 211.191406 579.703125 206.683594 578.195312 202.210938 576.574219 C 197.738281 574.957031 193.308594 573.226562 188.917969 571.386719 C 184.53125 569.546875 180.1875 567.597656 175.894531 565.542969 C 171.601562 563.488281 167.359375 561.328125 163.171875 559.0625 C 158.980469 556.792969 154.847656 554.425781 150.773438 551.953125 C 146.699219 549.484375 142.6875 546.910156 138.738281 544.242188 C 134.789062 541.570312 130.90625 538.804688 127.089844 535.9375 C 123.277344 533.074219 119.53125 530.117188 115.859375 527.070312 C 112.1875 524.019531 108.59375 520.878906 105.074219 517.652344 C 101.554688 514.421875 98.113281 511.109375 94.753906 507.710938 C 91.398438 504.3125 88.121094 500.832031 84.933594 497.269531 C 81.742188 493.707031 78.640625 490.066406 75.625 486.351562 C 72.613281 482.636719 69.691406 478.847656 66.863281 474.984375 C 64.03125 471.125 61.296875 467.195312 58.660156 463.195312 C 56.019531 459.199219 53.480469 455.140625 51.039062 451.015625 C 48.59375 446.894531 46.253906 442.710938 44.015625 438.472656 C 41.777344 434.230469 39.640625 429.9375 37.609375 425.59375 C 35.578125 421.246094 33.65625 416.855469 31.835938 412.414062 C 30.019531 407.972656 28.308594 403.488281 26.710938 398.960938 C 25.109375 394.433594 23.621094 389.871094 22.242188 385.269531 C 20.863281 380.671875 19.597656 376.039062 18.441406 371.375 C 17.289062 366.710938 16.246094 362.023438 15.320312 357.308594 C 14.394531 352.59375 13.582031 347.859375 12.882812 343.101562 C 12.1875 338.347656 11.605469 333.578125 11.140625 328.792969 C 10.675781 324.007812 10.324219 319.214844 10.09375 314.414062 C 9.859375 309.613281 9.742188 304.808594 9.742188 300 C 9.742188 295.195312 9.859375 290.390625 10.09375 285.589844 C 10.324219 280.785156 10.675781 275.992188 11.140625 271.210938 C 11.605469 266.425781 12.1875 261.65625 12.882812 256.898438 C 13.582031 252.144531 14.394531 247.410156 15.320312 242.695312 C 16.246094 237.980469 17.289062 233.289062 18.441406 228.628906 C 19.597656 223.964844 20.863281 219.332031 22.242188 214.730469 C 23.621094 210.132812 25.109375 205.566406 26.710938 201.042969 C 28.308594 196.515625 30.019531 192.03125 31.835938 187.589844 C 33.65625 183.148438 35.578125 178.753906 37.609375 174.410156 C 39.640625 170.0625 41.777344 165.769531 44.015625 161.53125 C 46.253906 157.292969 48.59375 153.109375 51.039062 148.984375 C 53.480469 144.863281 56.019531 140.800781 58.660156 136.804688 C 61.296875 132.808594 64.03125 128.878906 66.863281 125.019531 C 69.691406 121.15625 72.613281 117.367188 75.625 113.652344 C 78.640625 109.933594 81.742188 106.296875 84.933594 102.734375 C 88.121094 99.171875 91.398438 95.691406 94.753906 92.292969 C 98.113281 88.894531 101.554688 85.578125 105.074219 82.351562 C 108.59375 79.121094 112.1875 75.984375 115.859375 72.933594 C 119.53125 69.882812 123.277344 66.925781 127.089844 64.0625 C 130.90625 61.199219 134.789062 58.433594 138.738281 55.761719 C 142.6875 53.089844 146.699219 50.519531 150.773438 48.046875 C 154.847656 45.578125 158.980469 43.207031 163.171875 40.941406 C 167.359375 38.675781 171.601562 36.515625 175.894531 34.460938 C 180.1875 32.402344 184.53125 30.457031 188.917969 28.617188 C 193.308594 26.777344 197.738281 25.046875 202.210938 23.425781 C 206.683594 21.808594 211.191406 20.300781 215.738281 18.90625 C 220.285156 17.507812 224.859375 16.226562 229.46875 15.058594 C 234.074219 13.890625 238.710938 12.839844 243.367188 11.902344 C 248.027344 10.964844 252.707031 10.140625 257.40625 9.4375 C 262.101562 8.730469 266.816406 8.140625 271.542969 7.671875 C 276.269531 7.199219 281.007812 6.847656 285.75 6.609375 C 290.496094 6.375 295.242188 6.257812 299.992188 6.257812 C 304.742188 6.257812 309.492188 6.375 314.234375 6.609375 C 318.980469 6.847656 323.714844 7.199219 328.441406 7.671875 C 333.167969 8.140625 337.882812 8.730469 342.582031 9.4375 C 347.28125 10.140625 351.960938 10.964844 356.617188 11.902344 C 361.277344 12.839844 365.910156 13.890625 370.519531 15.058594 C 375.125 16.226562 379.703125 17.507812 384.25 18.90625 C 388.792969 20.300781 393.304688 21.808594 397.773438 23.425781 C 402.246094 25.046875 406.679688 26.777344 411.066406 28.617188 C 415.457031 30.457031 419.796875 32.402344 424.089844 34.460938 C 428.386719 36.515625 432.625 38.675781 436.816406 40.941406 C 441.003906 43.207031 445.136719 45.578125 449.210938 48.046875 C 453.285156 50.519531 457.296875 53.089844 461.246094 55.761719 C 465.195312 58.433594 469.078125 61.199219 472.894531 64.0625 C 476.710938 66.925781 480.453125 69.882812 484.125 72.933594 C 487.796875 75.984375 491.394531 79.121094 494.914062 82.351562 C 498.433594 85.578125 501.871094 88.894531 505.230469 92.292969 C 508.589844 95.691406 511.863281 99.171875 515.054688 102.734375 C 518.242188 106.296875 521.347656 109.933594 524.359375 113.652344 C 527.371094 117.367188 530.292969 121.15625 533.125 125.019531 C 535.953125 128.878906 538.6875 132.808594 541.328125 136.804688 C 543.964844 140.800781 546.507812 144.863281 548.949219 148.984375 C 551.390625 153.109375 553.730469 157.292969 555.96875 161.53125 C 558.210938 165.769531 560.34375 170.0625 562.375 174.410156 C 564.40625 178.753906 566.332031 183.148438 568.148438 187.589844 C 569.96875 192.03125 571.675781 196.515625 573.277344 201.042969 C 574.875 205.566406 576.367188 210.132812 577.746094 214.730469 C 579.125 219.332031 580.390625 223.964844 581.542969 228.628906 C 582.699219 233.289062 583.738281 237.980469 584.664062 242.695312 C 585.59375 247.410156 586.40625 252.144531 587.101562 256.898438 C 587.796875 261.65625 588.378906 266.425781 588.84375 271.210938 C 589.3125 275.992188 589.660156 280.785156 589.894531 285.589844 C 590.125 290.390625 590.242188 295.195312 590.242188 300 Z M 590.242188 300 " fill-opacity="1" fill-rule="nonzero"/></g><path fill="#0467ff" d="M 302.316406 484.222656 C 301.152344 484.222656 300.378906 484.222656 299.21875 484.222656 C 298.445312 484.222656 298.058594 484.222656 297.285156 484.222656 C 274.0625 484.222656 258.972656 473.769531 244.652344 463.320312 C 234.589844 456.355469 225.300781 449.777344 214.078125 447.839844 C 208.660156 447.066406 203.242188 446.679688 198.210938 446.679688 C 188.925781 446.679688 181.570312 448.226562 176.152344 449.003906 C 173.058594 449.777344 169.960938 450.164062 168.027344 450.164062 C 165.703125 450.164062 163.382812 449.777344 162.222656 445.90625 C 161.445312 442.808594 160.671875 439.714844 159.898438 436.617188 C 158.351562 428.878906 157.191406 424.234375 154.09375 423.847656 C 117.328125 418.042969 106.492188 410.300781 104.171875 404.882812 C 103.785156 404.109375 103.785156 403.335938 103.785156 402.558594 C 103.785156 400.625 105.332031 398.691406 107.265625 398.304688 C 164.15625 389.015625 189.3125 330.960938 190.472656 328.640625 C 190.472656 328.640625 190.472656 328.640625 190.472656 328.253906 C 193.957031 321.289062 194.730469 315.09375 192.40625 310.0625 C 188.539062 300.773438 175.765625 296.90625 167.253906 294.195312 C 165.316406 293.421875 163.382812 293.035156 161.835938 292.261719 C 145.191406 285.683594 143.644531 278.714844 144.417969 275.230469 C 145.582031 269.425781 153.320312 265.171875 159.898438 265.171875 C 161.835938 265.171875 163.382812 265.558594 164.542969 265.945312 C 171.894531 269.425781 178.863281 271.363281 184.667969 271.363281 C 192.792969 271.363281 196.277344 267.878906 196.664062 267.492188 C 196.277344 263.621094 196.277344 259.75 195.890625 255.496094 C 194.34375 228.789062 192.019531 195.507812 200.535156 176.542969 C 226.074219 120.425781 279.871094 115.78125 296.125 115.78125 C 296.511719 115.78125 303.089844 115.78125 303.089844 115.78125 L 303.863281 115.78125 C 319.730469 115.78125 373.910156 120.039062 399.453125 177.316406 C 407.964844 196.28125 405.644531 229.566406 404.097656 256.65625 L 404.097656 257.816406 C 403.710938 261.6875 403.710938 265.171875 403.320312 268.652344 C 403.710938 269.039062 406.804688 272.136719 414.15625 272.523438 C 419.574219 272.136719 426.15625 270.589844 433.121094 267.105469 C 435.054688 266.332031 437.378906 265.945312 438.925781 265.945312 C 441.25 265.945312 443.570312 266.332031 445.890625 267.105469 C 451.695312 269.039062 455.179688 273.296875 455.566406 277.167969 C 455.566406 281.039062 452.472656 286.84375 437.765625 292.648438 C 436.21875 293.421875 434.28125 293.808594 432.347656 294.582031 C 423.832031 297.292969 411.0625 301.164062 407.191406 310.449219 C 405.257812 315.480469 405.644531 321.675781 409.128906 328.640625 C 409.128906 328.640625 409.128906 328.640625 409.128906 329.027344 C 410.289062 331.347656 435.441406 389.402344 492.332031 398.691406 C 494.265625 399.078125 495.816406 401.011719 495.816406 402.949219 C 495.816406 403.722656 495.429688 404.496094 495.429688 405.269531 C 493.105469 410.6875 482.65625 418.429688 445.503906 424.234375 C 442.410156 424.621094 441.25 428.492188 439.699219 437.003906 C 438.925781 440.101562 438.539062 442.808594 437.378906 445.90625 C 436.605469 448.617188 435.054688 449.777344 431.960938 449.777344 L 431.574219 449.777344 C 429.636719 449.777344 426.929688 449.390625 423.445312 448.617188 C 417.253906 447.453125 410.289062 446.292969 401.386719 446.292969 C 396.355469 446.292969 390.9375 446.679688 385.519531 447.453125 C 374.296875 449.390625 365.007812 455.96875 354.945312 462.933594 C 340.628906 473.769531 325.921875 484.222656 302.316406 484.222656 Z M 302.316406 484.222656 " fill-opacity="1" fill-rule="nonzero"/><path fill="#0467ff" d="M 303.863281 120.039062 C 318.957031 120.039062 370.8125 123.910156 395.582031 178.867188 C 403.710938 197.054688 401.773438 229.566406 399.839844 255.882812 C 399.453125 260.140625 399.453125 264.007812 399.066406 267.878906 L 399.066406 269.425781 L 400.226562 270.589844 C 400.613281 270.976562 404.871094 275.621094 414.15625 276.007812 C 420.351562 275.621094 427.316406 273.683594 434.667969 270.199219 C 435.832031 269.8125 437.378906 269.425781 438.925781 269.425781 C 440.859375 269.425781 442.796875 269.8125 444.34375 270.589844 L 444.730469 270.589844 C 448.601562 272.136719 451.308594 274.457031 451.695312 276.78125 C 451.695312 277.941406 450.535156 282.972656 436.605469 288.390625 C 435.054688 288.777344 433.507812 289.550781 431.1875 290.324219 C 421.898438 293.035156 408.351562 297.679688 403.710938 308.515625 C 401 314.707031 401.773438 322.0625 405.644531 330.1875 C 407.191406 334.058594 433.507812 392.886719 491.945312 402.558594 C 491.945312 402.949219 491.945312 402.949219 491.558594 403.335938 C 490.398438 405.65625 484.207031 413.785156 445.117188 419.976562 C 438.925781 420.75 437.378906 427.714844 435.832031 435.84375 C 435.054688 438.554688 434.667969 441.648438 433.507812 444.746094 C 433.121094 445.519531 433.121094 445.519531 432.347656 445.519531 C 432.347656 445.519531 431.960938 445.519531 431.960938 445.519531 C 430.023438 445.519531 427.703125 445.132812 424.605469 444.746094 C 419.1875 443.585938 411.449219 442.421875 401.773438 442.421875 C 396.355469 442.421875 390.550781 442.808594 385.132812 443.972656 C 373.136719 445.90625 363.460938 452.871094 353.011719 460.226562 C 339.082031 469.902344 324.761719 480.351562 302.703125 480.351562 C 301.929688 480.351562 300.765625 480.351562 299.992188 480.351562 L 299.21875 480.351562 C 298.832031 480.351562 298.058594 480.351562 297.671875 480.351562 C 275.613281 480.351562 261.292969 470.289062 247.359375 460.226562 C 236.914062 452.871094 227.238281 445.90625 215.238281 443.972656 C 209.433594 443.195312 204.015625 442.421875 198.597656 442.421875 C 188.925781 442.421875 181.183594 443.972656 175.765625 445.132812 C 172.671875 445.90625 169.960938 446.292969 168.414062 446.292969 C 166.863281 446.292969 166.863281 446.292969 166.476562 445.132812 C 165.703125 442.035156 164.929688 439.328125 164.15625 436.230469 C 162.222656 428.101562 161.058594 421.136719 154.867188 420.363281 C 115.394531 414.171875 109.203125 406.042969 108.429688 403.722656 C 108.429688 403.335938 108.042969 402.949219 108.042969 402.949219 C 166.476562 393.273438 192.792969 334.445312 194.34375 330.574219 C 198.210938 322.449219 198.984375 315.09375 196.277344 308.902344 C 191.632812 298.066406 177.699219 293.421875 168.800781 290.714844 C 166.863281 289.9375 164.929688 289.550781 163.382812 288.777344 C 151.386719 284.132812 147.902344 279.488281 148.289062 276.394531 C 149.0625 272.910156 154.480469 269.8125 159.511719 269.8125 C 160.671875 269.8125 161.445312 269.8125 162.222656 270.203125 C 170.347656 274.070312 177.699219 276.007812 184.28125 276.007812 C 194.34375 276.007812 198.984375 271.363281 199.375 270.589844 L 200.535156 269.425781 L 200.535156 267.878906 C 200.148438 264.007812 200.148438 260.140625 199.761719 255.882812 C 198.210938 229.566406 195.890625 196.667969 204.015625 178.867188 C 228.785156 124.296875 280.644531 120.039062 296.125 120.039062 C 296.511719 120.039062 303.089844 120.039062 303.089844 120.039062 C 303.089844 120.039062 303.476562 120.039062 303.863281 120.039062 M 303.863281 111.910156 C 303.476562 111.910156 303.089844 111.910156 302.703125 111.910156 C 302.703125 111.910156 296.125 111.910156 295.734375 111.910156 C 279.09375 111.910156 222.980469 116.554688 196.664062 175.769531 C 187.761719 195.894531 190.085938 229.566406 191.632812 256.65625 C 192.019531 259.75 192.019531 263.234375 192.40625 266.332031 C 190.859375 267.105469 188.539062 267.878906 184.667969 267.878906 C 179.25 267.878906 173.058594 266.332031 166.089844 262.847656 C 164.15625 262.074219 162.222656 261.6875 159.898438 261.6875 C 151.773438 261.6875 142.097656 267.105469 140.550781 275.230469 C 139.386719 281.039062 142.097656 289.550781 160.671875 296.90625 C 162.222656 297.679688 164.542969 298.066406 166.476562 298.839844 C 174.21875 301.164062 185.828125 305.03125 188.925781 312.386719 C 190.472656 316.257812 190.085938 321.289062 186.988281 327.09375 C 186.988281 327.09375 186.988281 327.480469 186.988281 327.480469 C 185.828125 329.800781 161.445312 385.917969 106.878906 394.820312 C 102.625 395.59375 99.527344 399.078125 99.914062 403.335938 C 99.914062 404.496094 100.300781 406.042969 100.6875 407.203125 C 104.945312 416.878906 121.972656 423.847656 153.320312 428.492188 C 154.480469 430.039062 155.640625 435.070312 156.027344 438.164062 C 156.804688 441.261719 157.191406 444.359375 158.351562 447.453125 C 159.125 450.550781 161.835938 454.421875 168.027344 454.421875 C 170.734375 454.421875 173.445312 453.644531 176.925781 453.257812 C 182.34375 452.097656 189.3125 450.9375 198.210938 450.9375 C 203.242188 450.9375 208.273438 451.324219 213.691406 452.097656 C 223.753906 453.644531 232.269531 459.839844 242.332031 466.804688 C 256.648438 476.867188 272.902344 488.476562 297.285156 488.476562 C 298.058594 488.476562 298.445312 488.476562 299.21875 488.476562 C 299.992188 488.476562 301.152344 488.476562 302.316406 488.476562 C 327.082031 488.476562 342.949219 476.867188 357.269531 466.804688 C 367.332031 459.839844 375.84375 453.644531 385.90625 452.097656 C 390.9375 451.324219 396.355469 450.9375 401.386719 450.9375 C 409.902344 450.9375 416.867188 452.097656 422.671875 453.257812 C 426.542969 454.035156 429.636719 454.421875 431.574219 454.421875 L 432.347656 454.421875 C 436.992188 454.421875 440.472656 452.097656 441.636719 447.453125 C 442.410156 444.359375 443.183594 441.261719 443.957031 438.164062 C 444.730469 435.070312 445.890625 430.039062 446.667969 428.878906 C 478.011719 423.847656 495.429688 416.878906 499.296875 407.589844 C 499.683594 406.429688 500.070312 405.269531 500.070312 403.722656 C 500.460938 399.464844 497.363281 395.59375 493.105469 395.207031 C 438.539062 386.304688 414.15625 330.1875 412.996094 327.867188 C 412.996094 327.867188 412.996094 327.480469 412.996094 327.480469 C 409.902344 321.675781 409.515625 316.644531 411.0625 312.773438 C 414.15625 305.417969 425.769531 301.550781 433.507812 299.226562 C 435.828125 298.453125 437.765625 298.066406 439.3125 297.292969 C 452.859375 291.875 459.824219 285.292969 459.4375 277.554688 C 459.4375 271.75 454.792969 266.332031 447.054688 263.621094 C 444.730469 262.460938 441.636719 262.074219 438.539062 262.074219 C 436.605469 262.074219 433.507812 262.460938 430.800781 263.621094 C 424.21875 266.71875 418.414062 268.265625 413.382812 268.652344 C 409.902344 268.652344 407.964844 267.492188 406.804688 267.105469 C 406.804688 264.394531 407.191406 261.6875 407.191406 258.589844 L 407.191406 257.429688 C 408.738281 230.339844 411.0625 196.28125 402.160156 176.15625 C 376.617188 116.167969 320.503906 111.910156 303.863281 111.910156 Z M 303.863281 111.910156 " fill-opacity="1" fill-rule="nonzero"/><path fill="#ffffff" d="M 424.308594 440.226562 C 358.082031 411.734375 243.667969 419.59375 183.347656 458.894531 C 161.382812 431.710938 168.921875 366.21875 194.167969 358.683594 C 176.792969 292.207031 211.542969 150.082031 127.289062 145.496094 C 93.523438 181.519531 72.539062 101.613281 126.304688 120.9375 C 237.429688 131.625 198.6875 269.800781 224.65625 351.808594 C 317.761719 331.503906 473.8125 376.039062 442.011719 400.929688 C 349.5625 376.039062 235.472656 346.238281 194.167969 431.382812 C 240.0625 385.539062 409.886719 393.722656 424.308594 440.226562 Z M 424.308594 440.226562 " fill-opacity="1" fill-rule="nonzero"/><path fill="#ffffff" d="M 417.421875 355.738281 C 491.183594 293.847656 657.554688 113.46875 217.769531 201.5 C 541.34375 183.816406 499.054688 211.324219 417.421875 355.738281 Z M 417.421875 355.738281 " fill-opacity="1" fill-rule="nonzero"/><path fill="#ffffff" d="M 472.5 257.496094 C 400.375 233.589844 313.5 224.421875 234.488281 239.8125 C 308.910156 234.574219 395.128906 252.910156 464.628906 276.160156 Z M 472.5 257.496094 " fill-opacity="1" fill-rule="nonzero"/><path fill="#ffffff" d="M 448.894531 302.6875 L 438.078125 323.316406 C 389.226562 291.878906 321.691406 278.125 252.191406 282.054688 C 303.664062 255.53125 368.902344 265.355469 448.898438 302.6875 Z M 448.894531 302.6875 " fill-opacity="1" fill-rule="nonzero"/><path fill="#ffffff" d="M 468.566406 207.394531 L 440.042969 194.621094 C 398.738281 244.398438 377.097656 296.140625 363.328125 349.84375 C 389.554688 299.414062 418.730469 253.894531 468.5625 207.394531 Z M 468.566406 207.394531 " fill-opacity="1" fill-rule="nonzero"/><path fill="#ffffff" d="M 409.554688 189.710938 L 384.964844 188.726562 C 347.59375 233.921875 331.855469 280.09375 331.855469 327.25 C 345.953125 281.40625 367.917969 235.554688 409.554688 189.710938 Z M 409.554688 189.710938 " fill-opacity="1" fill-rule="nonzero"/><path fill="#ffffff" d="M 340.710938 190.6875 L 317.105469 191.671875 C 302.023438 230.640625 290.878906 267.644531 292.519531 308.578125 C 297.761719 267.320312 316.777344 230.964844 340.707031 190.6875 Z M 340.710938 190.6875 " fill-opacity="1" fill-rule="nonzero"/><path stroke-linecap="round" transform="matrix(-0.347725, 0, 0, 0.347342, 438.076422, 244.659283)" fill-opacity="1" fill="#ffffff" fill-rule="nonzero" stroke-linejoin="round" d="M 102.334508 514.648006 C 85.315386 514.895421 69.430872 519.731258 56.70304 529.616608 C 19.676621 558.361721 23.12538 618.877158 64.420622 664.705146 C 105.715865 710.533133 169.298855 724.422106 206.336508 695.676993 C 243.374162 666.93188 239.914169 606.382705 198.618926 560.554717 C 171.511902 530.48256 134.822495 514.186915 102.334508 514.648006 Z M 131.452372 572.05951 C 145.685525 571.834587 161.749779 579.549434 173.612613 593.742053 C 191.687706 615.368364 193.237963 643.899801 177.016437 657.462637 C 160.806145 671.025472 132.94646 664.491469 114.860132 642.865157 C 96.773805 621.250091 95.268483 592.684916 111.490009 579.122081 C 117.061946 574.454936 124.0044 572.171971 131.452372 572.05951 Z M 131.452372 572.05951 " stroke="#fffdff" stroke-width="9.127" stroke-opacity="1" stroke-miterlimit="4"/><path stroke-linecap="round" transform="matrix(-0.347725, 0, 0, 0.347342, 438.076422, 244.659283)" fill-opacity="1" fill="#ffffff" fill-rule="nonzero" stroke-linejoin="round" d="M 607.212658 514.648006 C 590.193536 514.895421 574.320256 519.731258 561.58119 529.616608 C 524.554771 558.361721 528.014764 618.877158 569.298772 664.705146 C 610.594015 710.533133 674.177005 724.422106 711.214658 695.676993 C 748.252312 666.93188 744.792319 606.382705 703.497076 560.554717 C 676.401286 530.48256 639.700645 514.186915 607.212658 514.648006 Z M 636.330522 572.05951 C 650.563675 571.834587 666.627929 579.549434 678.490763 593.742053 C 696.57709 615.368364 698.116113 643.899801 681.894587 657.462637 C 665.684295 671.025472 637.82461 664.491469 619.738282 642.865157 C 601.663188 621.250091 600.146633 592.684916 616.368159 579.122081 C 621.940096 574.454936 628.88255 572.171971 636.330522 572.05951 Z M 636.330522 572.05951 " stroke="#fffdff" stroke-width="9.127" stroke-opacity="1" stroke-miterlimit="4"/></svg>