<svg xmlns="http://www.w3.org/2000/svg" xmlns:xlink="http://www.w3.org/1999/xlink" width="467" zoomAndPan="magnify" viewBox="0 0 350.25 299.999988" height="400" preserveAspectRatio="xMidYMid meet" version="1.0"><defs><g/><clipPath id="id1"><path d="M 104 28.515625 L 314.550781 28.515625 L 314.550781 99 L 104 99 Z M 104 28.515625 " clip-rule="nonzero"/></clipPath><clipPath id="id2"><path d="M 104 98 L 314.550781 98 L 314.550781 161 L 104 161 Z M 104 98 " clip-rule="nonzero"/></clipPath><clipPath id="id3"><path d="M 104 160 L 314.550781 160 L 314.550781 230.582031 L 104 230.582031 Z M 104 160 " clip-rule="nonzero"/></clipPath><clipPath id="id4"><path d="M 34.648438 28.515625 L 105 28.515625 L 105 230.582031 L 34.648438 230.582031 Z M 34.648438 28.515625 " clip-rule="nonzero"/></clipPath></defs><g clip-path="url(#id1)"><path fill="#068241" d="M 283.394531 28.515625 L 104.664062 28.515625 L 104.664062 98.460938 L 314.476562 98.460938 L 314.476562 59.601562 C 314.476562 42.433594 300.558594 28.515625 283.394531 28.515625 Z M 283.394531 28.515625 " fill-opacity="1" fill-rule="nonzero"/></g><g clip-path="url(#id2)"><path fill="#eeeeee" d="M 104.664062 98.460938 L 314.476562 98.460938 L 314.476562 160.636719 L 104.664062 160.636719 Z M 104.664062 98.460938 " fill-opacity="1" fill-rule="nonzero"/></g><g clip-path="url(#id3)"><path fill="#141414" d="M 104.664062 230.582031 L 283.394531 230.582031 C 300.558594 230.582031 314.476562 216.664062 314.476562 199.496094 L 314.476562 160.636719 L 104.664062 160.636719 Z M 104.664062 230.582031 " fill-opacity="1" fill-rule="nonzero"/></g><g clip-path="url(#id4)"><path fill="#ec2028" d="M 65.808594 28.515625 C 48.640625 28.515625 34.722656 42.433594 34.722656 59.601562 L 34.722656 199.496094 C 34.722656 216.664062 48.640625 230.582031 65.808594 230.582031 L 104.664062 230.582031 L 104.664062 28.515625 Z M 65.808594 28.515625 " fill-opacity="1" fill-rule="nonzero"/></g><g fill="#000000" fill-opacity="1"><g transform="translate(141.204465, 272.860632)"><g><path d="M 7.03125 -21.46875 L 7.03125 -8.625 C 7.03125 -7.34375 7.34375 -6.351562 7.96875 -5.65625 C 8.601562 -4.96875 9.535156 -4.625 10.765625 -4.625 C 11.984375 -4.625 12.921875 -4.96875 13.578125 -5.65625 C 14.234375 -6.351562 14.5625 -7.34375 14.5625 -8.625 L 14.5625 -21.46875 L 19.78125 -21.46875 L 19.78125 -8.65625 C 19.78125 -6.738281 19.375 -5.113281 18.5625 -3.78125 C 17.75 -2.457031 16.648438 -1.457031 15.265625 -0.78125 C 13.890625 -0.113281 12.359375 0.21875 10.671875 0.21875 C 8.984375 0.21875 7.46875 -0.113281 6.125 -0.78125 C 4.789062 -1.445312 3.734375 -2.445312 2.953125 -3.78125 C 2.179688 -5.113281 1.796875 -6.738281 1.796875 -8.65625 L 1.796875 -21.46875 Z M 7.03125 -21.46875 "/></g></g></g><g fill="#000000" fill-opacity="1"><g transform="translate(162.754441, 272.860632)"><g><path d="M 15.265625 -3.796875 L 7.25 -3.796875 L 5.96875 0 L 0.484375 0 L 8.25 -21.46875 L 14.3125 -21.46875 L 22.078125 0 L 16.546875 0 Z M 13.90625 -7.828125 L 11.25 -15.6875 L 8.625 -7.828125 Z M 13.90625 -7.828125 "/></g></g></g><g fill="#000000" fill-opacity="1"><g transform="translate(185.282567, 272.860632)"><g><path d="M 7.125 -17.28125 L 7.125 -12.9375 L 14.125 -12.9375 L 14.125 -8.890625 L 7.125 -8.890625 L 7.125 -4.1875 L 15.046875 -4.1875 L 15.046875 0 L 1.890625 0 L 1.890625 -21.46875 L 15.046875 -21.46875 L 15.046875 -17.28125 Z M 7.125 -17.28125 "/></g></g></g><g fill="#000000" fill-opacity="1"><g transform="translate(201.812962, 272.860632)"><g/></g></g></svg>