<svg xmlns="http://www.w3.org/2000/svg" xmlns:xlink="http://www.w3.org/1999/xlink" width="467" zoomAndPan="magnify" viewBox="0 0 350.25 299.999988" height="400" preserveAspectRatio="xMidYMid meet" version="1.0"><defs><g/><clipPath id="id1"><path d="M 34.648438 28.515625 L 152 28.515625 L 152 230.582031 L 34.648438 230.582031 Z M 34.648438 28.515625 " clip-rule="nonzero"/></clipPath><clipPath id="id2"><path d="M 96 28.515625 L 314.550781 28.515625 L 314.550781 230.582031 L 96 230.582031 Z M 96 28.515625 " clip-rule="nonzero"/></clipPath><clipPath id="id3"><path d="M 34.648438 28.515625 L 314.550781 28.515625 L 314.550781 95 L 34.648438 95 Z M 34.648438 28.515625 " clip-rule="nonzero"/></clipPath><clipPath id="id4"><path d="M 34.648438 164 L 314.550781 164 L 314.550781 230.582031 L 34.648438 230.582031 Z M 34.648438 164 " clip-rule="nonzero"/></clipPath><clipPath id="id5"><path d="M 34.648438 94 L 314.550781 94 L 314.550781 165 L 34.648438 165 Z M 34.648438 94 " clip-rule="nonzero"/></clipPath><clipPath id="id6"><path d="M 34.648438 37 L 105 37 L 105 222 L 34.648438 222 Z M 34.648438 37 " clip-rule="nonzero"/></clipPath></defs><g clip-path="url(#id1)"><path fill="#eeeeee" d="M 151.289062 36.289062 L 96.890625 28.515625 L 65.808594 28.515625 C 48.640625 28.515625 34.722656 42.433594 34.722656 59.601562 L 34.722656 199.496094 C 34.722656 216.664062 48.640625 230.582031 65.808594 230.582031 L 96.890625 230.582031 L 151.289062 222.8125 Z M 151.289062 36.289062 " fill-opacity="1" fill-rule="nonzero"/></g><g clip-path="url(#id2)"><path fill="#ce1126" d="M 283.394531 28.515625 L 96.890625 28.515625 L 144.144531 48.722656 L 96.890625 68.929688 L 144.144531 89.136719 L 96.890625 109.34375 L 144.144531 129.550781 L 96.890625 149.753906 L 144.144531 169.960938 L 96.890625 190.167969 L 144.144531 210.375 L 96.890625 230.582031 L 283.394531 230.582031 C 300.558594 230.582031 314.476562 216.664062 314.476562 199.496094 L 314.476562 59.601562 C 314.476562 42.433594 300.558594 28.515625 283.394531 28.515625 Z M 283.394531 28.515625 " fill-opacity="1" fill-rule="nonzero"/></g><g clip-path="url(#id3)"><path fill="#007a3d" d="M 283.394531 28.515625 L 65.808594 28.515625 C 48.640625 28.515625 34.722656 42.433594 34.722656 59.601562 L 34.722656 94.574219 L 314.476562 94.574219 L 314.476562 59.601562 C 314.476562 42.433594 300.558594 28.515625 283.394531 28.515625 Z M 283.394531 28.515625 " fill-opacity="1" fill-rule="nonzero"/></g><g clip-path="url(#id4)"><path fill="#ce1126" d="M 34.722656 199.496094 C 34.722656 216.664062 48.640625 230.582031 65.808594 230.582031 L 283.394531 230.582031 C 300.558594 230.582031 314.476562 216.664062 314.476562 199.496094 L 314.476562 164.523438 L 34.722656 164.523438 Z M 34.722656 199.496094 " fill-opacity="1" fill-rule="nonzero"/></g><g clip-path="url(#id5)"><path fill="#eeeeee" d="M 34.722656 94.574219 L 314.476562 94.574219 L 314.476562 164.523438 L 34.722656 164.523438 Z M 34.722656 94.574219 " fill-opacity="1" fill-rule="nonzero"/></g><g clip-path="url(#id6)"><path fill="#141414" d="M 44.089844 37.359375 C 38.3125 43.011719 34.722656 50.890625 34.722656 59.601562 L 34.722656 199.496094 C 34.722656 208.214844 38.3125 216.089844 44.089844 221.738281 L 104.664062 164.523438 L 104.664062 94.574219 Z M 44.089844 37.359375 " fill-opacity="1" fill-rule="nonzero"/></g><g fill="#000000" fill-opacity="1"><g transform="translate(116.235473, 272.860632)"><g><path d="M 14.34375 0 L 7.125 -9.484375 L 7.125 0 L 1.890625 0 L 1.890625 -21.46875 L 7.125 -21.46875 L 7.125 -12.046875 L 14.28125 -21.46875 L 20.421875 -21.46875 L 12.109375 -10.953125 L 20.734375 0 Z M 14.34375 0 "/></g></g></g><g fill="#000000" fill-opacity="1"><g transform="translate(137.540909, 272.860632)"><g><path d="M 18.75 -17.0625 L 18.75 0 L 13.515625 0 L 13.515625 -2.328125 C 12.984375 -1.566406 12.265625 -0.957031 11.359375 -0.5 C 10.453125 -0.0390625 9.445312 0.1875 8.34375 0.1875 C 7.039062 0.1875 5.890625 -0.101562 4.890625 -0.6875 C 3.890625 -1.269531 3.113281 -2.109375 2.5625 -3.203125 C 2.019531 -4.304688 1.75 -5.601562 1.75 -7.09375 L 1.75 -17.0625 L 6.9375 -17.0625 L 6.9375 -7.796875 C 6.9375 -6.648438 7.234375 -5.757812 7.828125 -5.125 C 8.421875 -4.5 9.21875 -4.1875 10.21875 -4.1875 C 11.226562 -4.1875 12.03125 -4.5 12.625 -5.125 C 13.21875 -5.757812 13.515625 -6.648438 13.515625 -7.796875 L 13.515625 -17.0625 Z M 18.75 -17.0625 "/></g></g></g><g fill="#000000" fill-opacity="1"><g transform="translate(158.143295, 272.860632)"><g><path d="M 26.390625 -17.0625 L 21.765625 0 L 16 0 L 13.296875 -11.0625 L 10.515625 0 L 4.765625 0 L 0.125 -17.0625 L 5.34375 -17.0625 L 7.765625 -4.859375 L 10.640625 -17.0625 L 16.171875 -17.0625 L 19.078125 -4.921875 L 21.46875 -17.0625 Z M 26.390625 -17.0625 "/></g></g></g><g fill="#000000" fill-opacity="1"><g transform="translate(184.614611, 272.860632)"><g><path d="M 0.859375 -8.5625 C 0.859375 -10.3125 1.1875 -11.847656 1.84375 -13.171875 C 2.507812 -14.503906 3.410156 -15.523438 4.546875 -16.234375 C 5.691406 -16.953125 6.96875 -17.3125 8.375 -17.3125 C 9.582031 -17.3125 10.640625 -17.066406 11.546875 -16.578125 C 12.453125 -16.085938 13.148438 -15.441406 13.640625 -14.640625 L 13.640625 -17.0625 L 18.859375 -17.0625 L 18.859375 0 L 13.640625 0 L 13.640625 -2.421875 C 13.128906 -1.617188 12.421875 -0.972656 11.515625 -0.484375 C 10.609375 0.00390625 9.550781 0.25 8.34375 0.25 C 6.957031 0.25 5.691406 -0.109375 4.546875 -0.828125 C 3.410156 -1.554688 2.507812 -2.585938 1.84375 -3.921875 C 1.1875 -5.265625 0.859375 -6.8125 0.859375 -8.5625 Z M 13.640625 -8.53125 C 13.640625 -9.832031 13.273438 -10.859375 12.546875 -11.609375 C 11.828125 -12.367188 10.945312 -12.75 9.90625 -12.75 C 8.863281 -12.75 7.976562 -12.375 7.25 -11.625 C 6.53125 -10.882812 6.171875 -9.863281 6.171875 -8.5625 C 6.171875 -7.257812 6.53125 -6.222656 7.25 -5.453125 C 7.976562 -4.691406 8.863281 -4.3125 9.90625 -4.3125 C 10.945312 -4.3125 11.828125 -4.6875 12.546875 -5.4375 C 13.273438 -6.195312 13.640625 -7.226562 13.640625 -8.53125 Z M 13.640625 -8.53125 "/></g></g></g><g fill="#000000" fill-opacity="1"><g transform="translate(205.369837, 272.860632)"><g><path d="M 4.53125 -18.84375 C 3.613281 -18.84375 2.863281 -19.109375 2.28125 -19.640625 C 1.695312 -20.179688 1.40625 -20.851562 1.40625 -21.65625 C 1.40625 -22.46875 1.695312 -23.144531 2.28125 -23.6875 C 2.863281 -24.226562 3.613281 -24.5 4.53125 -24.5 C 5.425781 -24.5 6.160156 -24.226562 6.734375 -23.6875 C 7.316406 -23.144531 7.609375 -22.46875 7.609375 -21.65625 C 7.609375 -20.851562 7.316406 -20.179688 6.734375 -19.640625 C 6.160156 -19.109375 5.425781 -18.84375 4.53125 -18.84375 Z M 7.125 -17.0625 L 7.125 0 L 1.890625 0 L 1.890625 -17.0625 Z M 7.125 -17.0625 "/></g></g></g><g fill="#000000" fill-opacity="1"><g transform="translate(214.387206, 272.860632)"><g><path d="M 11.40625 -4.4375 L 11.40625 0 L 8.75 0 C 6.851562 0 5.375 -0.460938 4.3125 -1.390625 C 3.25 -2.316406 2.71875 -3.832031 2.71875 -5.9375 L 2.71875 -12.71875 L 0.640625 -12.71875 L 0.640625 -17.0625 L 2.71875 -17.0625 L 2.71875 -21.21875 L 7.953125 -21.21875 L 7.953125 -17.0625 L 11.375 -17.0625 L 11.375 -12.71875 L 7.953125 -12.71875 L 7.953125 -5.875 C 7.953125 -5.363281 8.070312 -4.992188 8.3125 -4.765625 C 8.5625 -4.546875 8.972656 -4.4375 9.546875 -4.4375 Z M 11.40625 -4.4375 "/></g></g></g><g fill="#000000" fill-opacity="1"><g transform="translate(226.787802, 272.860632)"><g/></g></g></svg>