<svg xmlns="http://www.w3.org/2000/svg" xmlns:xlink="http://www.w3.org/1999/xlink" width="467" zoomAndPan="magnify" viewBox="0 0 350.25 299.999988" height="400" preserveAspectRatio="xMidYMid meet" version="1.0"><defs><g/><clipPath id="id1"><path d="M 120 28.515625 L 314.550781 28.515625 L 314.550781 230.582031 L 120 230.582031 Z M 120 28.515625 " clip-rule="nonzero"/></clipPath><clipPath id="id2"><path d="M 34.648438 28.515625 L 162 28.515625 L 162 230.582031 L 34.648438 230.582031 Z M 34.648438 28.515625 " clip-rule="nonzero"/></clipPath></defs><g clip-path="url(#id1)"><path fill="#8d1b3d" d="M 283.394531 28.515625 L 120.203125 28.515625 L 120.203125 230.582031 L 283.394531 230.582031 C 300.558594 230.582031 314.476562 216.664062 314.476562 199.496094 L 314.476562 59.601562 C 314.476562 42.433594 300.558594 28.515625 283.394531 28.515625 Z M 283.394531 28.515625 " fill-opacity="1" fill-rule="nonzero"/></g><g clip-path="url(#id2)"><path fill="#eeeeee" d="M 120.203125 208.128906 L 161.351562 196.90625 L 120.203125 185.675781 L 161.351562 174.453125 L 120.203125 163.222656 L 161.351562 152 L 120.203125 140.773438 L 161.351562 129.550781 L 120.203125 118.328125 L 161.351562 107.105469 L 120.203125 95.875 L 161.351562 84.652344 L 120.203125 73.421875 L 161.351562 62.191406 L 120.203125 50.96875 L 161.351562 39.746094 L 120.203125 28.515625 L 65.808594 28.515625 C 48.640625 28.515625 34.722656 42.433594 34.722656 59.601562 L 34.722656 199.496094 C 34.722656 216.664062 48.640625 230.582031 65.808594 230.582031 L 120.203125 230.582031 L 161.351562 219.359375 Z M 120.203125 208.128906 " fill-opacity="1" fill-rule="nonzero"/></g><g fill="#000000" fill-opacity="1"><g transform="translate(125.961715, 272.860632)"><g><path d="M 17.1875 3.671875 L 14.4375 -0.03125 C 13.613281 0.132812 12.816406 0.21875 12.046875 0.21875 C 10.023438 0.21875 8.171875 -0.25 6.484375 -1.1875 C 4.804688 -2.125 3.472656 -3.429688 2.484375 -5.109375 C 1.503906 -6.796875 1.015625 -8.691406 1.015625 -10.796875 C 1.015625 -12.890625 1.503906 -14.769531 2.484375 -16.4375 C 3.472656 -18.113281 4.804688 -19.421875 6.484375 -20.359375 C 8.171875 -21.296875 10.023438 -21.765625 12.046875 -21.765625 C 14.066406 -21.765625 15.914062 -21.296875 17.59375 -20.359375 C 19.28125 -19.421875 20.609375 -18.113281 21.578125 -16.4375 C 22.546875 -14.769531 23.03125 -12.890625 23.03125 -10.796875 C 23.03125 -8.960938 22.65625 -7.285156 21.90625 -5.765625 C 21.164062 -4.242188 20.132812 -2.984375 18.8125 -1.984375 L 23.515625 3.671875 Z M 6.359375 -10.796875 C 6.359375 -8.898438 6.875 -7.382812 7.90625 -6.25 C 8.9375 -5.125 10.316406 -4.5625 12.046875 -4.5625 C 13.753906 -4.5625 15.125 -5.128906 16.15625 -6.265625 C 17.1875 -7.410156 17.703125 -8.921875 17.703125 -10.796875 C 17.703125 -12.691406 17.1875 -14.203125 16.15625 -15.328125 C 15.125 -16.460938 13.753906 -17.03125 12.046875 -17.03125 C 10.316406 -17.03125 8.9375 -16.46875 7.90625 -15.34375 C 6.875 -14.226562 6.359375 -12.710938 6.359375 -10.796875 Z M 6.359375 -10.796875 "/></g></g></g><g fill="#000000" fill-opacity="1"><g transform="translate(150.048781, 272.860632)"><g><path d="M 0.859375 -8.5625 C 0.859375 -10.3125 1.1875 -11.847656 1.84375 -13.171875 C 2.507812 -14.503906 3.410156 -15.523438 4.546875 -16.234375 C 5.691406 -16.953125 6.96875 -17.3125 8.375 -17.3125 C 9.582031 -17.3125 10.640625 -17.066406 11.546875 -16.578125 C 12.453125 -16.085938 13.148438 -15.441406 13.640625 -14.640625 L 13.640625 -17.0625 L 18.859375 -17.0625 L 18.859375 0 L 13.640625 0 L 13.640625 -2.421875 C 13.128906 -1.617188 12.421875 -0.972656 11.515625 -0.484375 C 10.609375 0.00390625 9.550781 0.25 8.34375 0.25 C 6.957031 0.25 5.691406 -0.109375 4.546875 -0.828125 C 3.410156 -1.554688 2.507812 -2.585938 1.84375 -3.921875 C 1.1875 -5.265625 0.859375 -6.8125 0.859375 -8.5625 Z M 13.640625 -8.53125 C 13.640625 -9.832031 13.273438 -10.859375 12.546875 -11.609375 C 11.828125 -12.367188 10.945312 -12.75 9.90625 -12.75 C 8.863281 -12.75 7.976562 -12.375 7.25 -11.625 C 6.53125 -10.882812 6.171875 -9.863281 6.171875 -8.5625 C 6.171875 -7.257812 6.53125 -6.222656 7.25 -5.453125 C 7.976562 -4.691406 8.863281 -4.3125 9.90625 -4.3125 C 10.945312 -4.3125 11.828125 -4.6875 12.546875 -5.4375 C 13.273438 -6.195312 13.640625 -7.226562 13.640625 -8.53125 Z M 13.640625 -8.53125 "/></g></g></g><g fill="#000000" fill-opacity="1"><g transform="translate(170.804008, 272.860632)"><g><path d="M 11.40625 -4.4375 L 11.40625 0 L 8.75 0 C 6.851562 0 5.375 -0.460938 4.3125 -1.390625 C 3.25 -2.316406 2.71875 -3.832031 2.71875 -5.9375 L 2.71875 -12.71875 L 0.640625 -12.71875 L 0.640625 -17.0625 L 2.71875 -17.0625 L 2.71875 -21.21875 L 7.953125 -21.21875 L 7.953125 -17.0625 L 11.375 -17.0625 L 11.375 -12.71875 L 7.953125 -12.71875 L 7.953125 -5.875 C 7.953125 -5.363281 8.070312 -4.992188 8.3125 -4.765625 C 8.5625 -4.546875 8.972656 -4.4375 9.546875 -4.4375 Z M 11.40625 -4.4375 "/></g></g></g><g fill="#000000" fill-opacity="1"><g transform="translate(183.214345, 272.860632)"><g><path d="M 0.859375 -8.5625 C 0.859375 -10.3125 1.1875 -11.847656 1.84375 -13.171875 C 2.507812 -14.503906 3.410156 -15.523438 4.546875 -16.234375 C 5.691406 -16.953125 6.96875 -17.3125 8.375 -17.3125 C 9.582031 -17.3125 10.640625 -17.066406 11.546875 -16.578125 C 12.453125 -16.085938 13.148438 -15.441406 13.640625 -14.640625 L 13.640625 -17.0625 L 18.859375 -17.0625 L 18.859375 0 L 13.640625 0 L 13.640625 -2.421875 C 13.128906 -1.617188 12.421875 -0.972656 11.515625 -0.484375 C 10.609375 0.00390625 9.550781 0.25 8.34375 0.25 C 6.957031 0.25 5.691406 -0.109375 4.546875 -0.828125 C 3.410156 -1.554688 2.507812 -2.585938 1.84375 -3.921875 C 1.1875 -5.265625 0.859375 -6.8125 0.859375 -8.5625 Z M 13.640625 -8.53125 C 13.640625 -9.832031 13.273438 -10.859375 12.546875 -11.609375 C 11.828125 -12.367188 10.945312 -12.75 9.90625 -12.75 C 8.863281 -12.75 7.976562 -12.375 7.25 -11.625 C 6.53125 -10.882812 6.171875 -9.863281 6.171875 -8.5625 C 6.171875 -7.257812 6.53125 -6.222656 7.25 -5.453125 C 7.976562 -4.691406 8.863281 -4.3125 9.90625 -4.3125 C 10.945312 -4.3125 11.828125 -4.6875 12.546875 -5.4375 C 13.273438 -6.195312 13.640625 -7.226562 13.640625 -8.53125 Z M 13.640625 -8.53125 "/></g></g></g><g fill="#000000" fill-opacity="1"><g transform="translate(203.969572, 272.860632)"><g><path d="M 7.125 -14.21875 C 7.738281 -15.15625 8.503906 -15.894531 9.421875 -16.4375 C 10.335938 -16.976562 11.351562 -17.25 12.46875 -17.25 L 12.46875 -11.71875 L 11.03125 -11.71875 C 9.726562 -11.71875 8.75 -11.4375 8.09375 -10.875 C 7.445312 -10.3125 7.125 -9.328125 7.125 -7.921875 L 7.125 0 L 1.890625 0 L 1.890625 -17.0625 L 7.125 -17.0625 Z M 7.125 -14.21875 "/></g></g></g><g fill="#000000" fill-opacity="1"><g transform="translate(217.044018, 272.860632)"><g/></g></g></svg>