<svg xmlns="http://www.w3.org/2000/svg" xmlns:xlink="http://www.w3.org/1999/xlink" width="467" zoomAndPan="magnify" viewBox="0 0 350.25 299.999988" height="400" preserveAspectRatio="xMidYMid meet" version="1.0"><defs><g/><clipPath id="id1"><path d="M 34.648438 28 L 314.550781 28 L 314.550781 231 L 34.648438 231 Z M 34.648438 28 " clip-rule="nonzero"/></clipPath></defs><g clip-path="url(#id1)"><path fill="#006c35" d="M 283.449219 28.417969 L 65.75 28.417969 C 48.574219 28.417969 34.648438 42.34375 34.648438 59.515625 L 34.648438 199.46875 C 34.648438 216.640625 48.574219 230.566406 65.75 230.566406 L 283.449219 230.566406 C 300.625 230.566406 314.550781 216.640625 314.550781 199.46875 L 314.550781 59.515625 C 314.550781 42.34375 300.625 28.417969 283.449219 28.417969 Z M 283.449219 28.417969 " fill-opacity="1" fill-rule="nonzero"/></g><path fill="#ffffff" d="M 103.996094 98.78125 C 108.910156 99.246094 106.195312 90.46875 107.976562 88.875 C 108.308594 88.089844 108.933594 88.082031 108.980469 89.078125 L 108.980469 96.527344 C 108.933594 98.953125 110.527344 99.660156 111.761719 100.164062 C 113.054688 100.0625 113.910156 100.109375 114.414062 101.363281 L 115.019531 114.253906 C 115.019531 114.253906 118.007812 115.109375 118.144531 107 C 118.292969 102.242188 117.199219 98.261719 117.84375 97.335938 C 117.867188 96.425781 119.023438 96.371094 119.832031 96.8125 C 121.117188 97.714844 121.691406 98.835938 123.683594 98.390625 C 126.722656 97.558594 128.542969 96.082031 128.585938 93.75 C 128.410156 91.535156 128.160156 89.320312 127.203125 87.101562 C 127.335938 86.699219 126.621094 85.65625 126.753906 85.253906 C 127.296875 86.109375 128.128906 86.039062 128.316406 85.253906 C 127.800781 83.550781 127 81.917969 125.695312 81.210938 C 124.621094 80.261719 123.050781 80.457031 122.476562 82.429688 C 122.210938 84.699219 123.300781 87.40625 124.949219 89.605469 C 125.300781 90.46875 125.796875 91.898438 125.578125 93.191406 C 124.699219 93.6875 123.8125 93.484375 123.082031 92.707031 C 123.082031 92.707031 120.664062 90.898438 120.664062 90.492188 C 121.308594 86.386719 120.8125 85.921875 120.453125 84.785156 C 120.207031 83.214844 119.460938 82.710938 118.851562 81.636719 C 118.246094 81 117.429688 81 117.042969 81.636719 C 115.96875 83.488281 116.464844 87.46875 117.242188 89.25 C 117.796875 90.882812 118.652344 91.914062 118.246094 91.914062 C 117.914062 92.839844 117.226562 92.625 116.730469 91.558594 C 116.015625 89.351562 115.875 86.0625 115.875 84.574219 C 115.65625 82.742188 115.425781 78.816406 114.21875 77.820312 C 113.480469 76.816406 112.382812 77.296875 112.003906 78.222656 C 111.925781 80.042969 111.910156 81.871094 112.121094 83.558594 C 112.945312 86.503906 113.207031 89.101562 113.613281 92.125 C 113.722656 96.175781 111.273438 93.882812 111.382812 91.875 C 111.949219 89.273438 111.800781 85.167969 111.296875 84.125 C 110.898438 83.089844 110.425781 82.828125 109.460938 82.996094 C 108.699219 82.933594 106.722656 85.097656 106.164062 88.671875 C 106.164062 88.671875 105.691406 90.515625 105.488281 92.15625 C 105.214844 94.007812 104.003906 95.3125 103.148438 91.898438 C 102.410156 89.417969 101.957031 83.300781 100.722656 84.730469 C 100.363281 89.511719 99.9375 97.925781 103.996094 98.78125 Z M 103.996094 98.78125 " fill-opacity="1" fill-rule="nonzero"/><path fill="#ffffff" d="M 111.390625 102.273438 C 107.347656 102.351562 101.429688 107.582031 101.265625 110.480469 C 105.527344 108.429688 109.71875 106.453125 114.054688 104.339844 C 113.355469 103.289062 114.015625 102.351562 111.390625 102.273438 Z M 111.390625 102.273438 " fill-opacity="1" fill-rule="nonzero"/><path fill="#ffffff" d="M 133.679688 117.953125 C 135.554688 111.710938 133.378906 107.109375 134.394531 107.132812 C 136.550781 109.457031 139.566406 107.441406 140.226562 106.632812 C 140.515625 106.230469 141.222656 105.964844 141.71875 106.492188 C 143.40625 107.707031 146.378906 107.132812 146.992188 105 C 147.347656 102.917969 147.636719 100.753906 147.707031 98.523438 C 146.332031 98.953125 145.304688 99.238281 145.210938 99.808594 L 144.921875 101.65625 C 144.804688 102.257812 143.617188 102.28125 143.570312 101.519531 C 143.050781 99.144531 140.886719 98.835938 139.582031 102.511719 C 138.703125 103.226562 137.117188 103.367188 136.945312 102.304688 C 137.15625 99.839844 136.160156 99.503906 134.171875 100.664062 C 133.53125 95.773438 132.886719 91.097656 132.25 86.207031 C 133.082031 86.183594 133.84375 86.800781 134.597656 85.851562 C 133.765625 83.261719 132.007812 77.976562 131.035156 77.59375 C 130.5625 77.019531 130.160156 77.375 129.542969 77.523438 C 128.503906 77.859375 127.53125 78.761719 127.832031 80.507812 C 129.070312 88.011719 129.878906 93.726562 131.105469 101.230469 C 131.292969 102.109375 130.5625 103.265625 129.613281 103.152344 C 128.003906 102.0625 127.601562 99.855469 124.847656 99.945312 C 122.851562 99.96875 120.570312 102.132812 120.292969 104.222656 C 119.957031 105.878906 119.839844 107.683594 120.292969 109.136719 C 121.691406 110.816406 123.378906 110.652344 124.847656 110.273438 C 126.054688 109.773438 127.054688 108.5625 127.476562 108.847656 C 127.761719 109.199219 127.546875 113.1875 121.785156 116.25 C 118.292969 117.8125 115.519531 118.171875 114.023438 115.324219 C 113.101562 113.546875 114.09375 106.78125 111.816406 108.351562 C 105.074219 125.730469 127.601562 128.140625 130.121094 109.066406 C 130.359375 108.28125 131.308594 107.496094 131.472656 108.78125 C 130.953125 126.054688 114.046875 127.246094 111.179688 121.808594 C 110.464844 120.527344 110.253906 117.683594 110.183594 115.972656 C 109.757812 112.574219 107.976562 113.878906 107.695312 117.246094 C 107.410156 119.121094 107.488281 119.648438 107.488281 121.445312 C 108.378906 135.089844 130.152344 129.226562 133.679688 117.953125 Z M 125.285156 106.152344 C 125.144531 106.414062 124.527344 106.308594 124.078125 106.308594 C 123.566406 106.285156 123.324219 106.199219 123.011719 105.785156 C 122.875 105.320312 123.308594 104.875 123.503906 104.527344 C 123.742188 104.113281 125.042969 103.6875 125.5 104.835938 C 125.703125 105.359375 125.523438 105.894531 125.285156 106.152344 Z M 125.285156 106.152344 " fill-opacity="1" fill-rule="nonzero"/><path fill="#ffffff" d="M 140.40625 90.6875 C 141.757812 90.191406 148.171875 82.859375 148.171875 82.859375 C 147.839844 82.570312 147.542969 82.359375 147.207031 82.074219 C 146.851562 81.761719 146.890625 81.449219 147.207031 81.148438 C 148.796875 80.222656 148.289062 78.191406 147.457031 77.265625 C 146.082031 76.644531 144.882812 76.847656 144.003906 77.296875 C 142.894531 78.363281 142.628906 80.074219 143.507812 81.148438 C 144.363281 81.550781 145.21875 82.414062 144.652344 82.890625 C 142.03125 85.6875 134.847656 90.515625 135.679688 90.6875 C 135.855469 90.921875 140.265625 90.914062 140.40625 90.6875 Z M 145.15625 79.171875 C 145.570312 79.070312 146.097656 79.4375 146.347656 79.980469 C 146.59375 80.523438 146.460938 81.046875 146.058594 81.148438 L 146.042969 81.148438 C 145.636719 81.25 145.109375 80.882812 144.859375 80.339844 C 144.621094 79.785156 144.753906 79.273438 145.15625 79.171875 Z M 103.550781 123.722656 C 102.496094 125.875 102.050781 124.398438 101.957031 123.195312 C 101.796875 120.910156 102.011719 118.800781 102.261719 117.136719 C 102.527344 115.425781 102.261719 115.949219 101.71875 116.640625 C 99.316406 120.464844 99.105469 126.1875 100.433594 127.890625 C 101.132812 128.699219 102.292969 129.058594 103.15625 128.792969 C 104.664062 128.140625 105.324219 125.074219 104.96875 123.964844 C 104.453125 123.179688 104.058594 123.054688 103.550781 123.722656 Z M 182.710938 83.230469 C 185.476562 86.949219 188.105469 90.734375 190.679688 94.589844 C 191.183594 97.933594 191.550781 101.199219 191.765625 104.441406 C 192.195312 110.691406 192.320312 117.457031 191.929688 124.042969 C 193.097656 124.089844 194.988281 122.144531 195.640625 119.308594 C 196.066406 115.378906 195.484375 108.390625 195.445312 106.074219 C 195.40625 104.835938 195.328125 103.320312 195.234375 101.71875 C 198.296875 106.726562 201.285156 111.96875 204.199219 117.789062 C 205.265625 117.292969 205.03125 111.335938 204.410156 110.496094 C 202.078125 105.5 198.867188 100.554688 197.839844 98.65625 C 197.457031 97.957031 196.160156 95.964844 194.613281 93.6875 C 194.371094 91.074219 194.132812 88.960938 193.960938 88.261719 C 193.476562 84.933594 195.335938 88.625 195.078125 86.691406 C 194.480469 83.363281 192.628906 81.117188 190.46875 78.066406 C 189.769531 77.082031 189.792969 76.878906 188.710938 78.308594 C 188.261719 79.328125 188.175781 80.207031 188.199219 81.039062 C 187.917969 80.625 187.609375 80.199219 187.117188 79.601562 C 185.246094 77.992188 185.136719 77.898438 183.582031 76.582031 C 182.796875 76.023438 180.882812 75.011719 180.539062 76.691406 C 180.371094 78.175781 180.460938 78.976562 180.710938 80.222656 C 180.914062 81.054688 182.117188 82.4375 182.710938 83.230469 Z M 188.464844 83.042969 C 188.609375 83.691406 188.765625 84.335938 188.867188 84.996094 L 188.984375 85.625 C 188.523438 85.003906 188.144531 84.492188 187.964844 84.289062 C 186.691406 82.78125 187.746094 83.105469 188.464844 83.042969 Z M 188.464844 83.042969 " fill-opacity="1" fill-rule="nonzero"/><path fill="#ffffff" d="M 205.070312 119.332031 C 202.363281 122.152344 198.460938 125.628906 194.214844 127.238281 C 193.757812 127.75 195.351562 129.949219 197.40625 129.949219 C 200.847656 129.546875 203.882812 127.609375 206.6875 122.519531 C 207.441406 121.335938 208.765625 118.792969 208.792969 116.820312 C 209.050781 105.265625 208.21875 96.269531 206.484375 87.917969 C 206.367188 87.109375 206.4375 86.15625 206.578125 85.90625 C 206.796875 85.640625 207.558594 85.90625 207.960938 85.253906 C 208.546875 84.644531 206.398438 79.671875 205.171875 77.757812 C 204.734375 76.902344 204.589844 76.328125 203.867188 77.859375 C 203.101562 79.101562 202.597656 81.273438 202.660156 83.292969 C 204.300781 94.667969 204.804688 104.628906 205.878906 116.003906 C 205.964844 117.097656 205.800781 118.699219 205.070312 119.332031 Z M 250.398438 90.484375 C 250.28125 89.675781 249.925781 87.792969 250.066406 87.554688 C 250.28125 86.976562 251.410156 87.617188 251.8125 86.957031 C 252.40625 86.355469 248.90625 81.863281 247.683594 79.949219 C 247.242188 79.09375 247.09375 78.519531 246.371094 80.050781 C 245.609375 81.292969 245.34375 83.527344 245.648438 85.484375 C 247.476562 97.839844 248.835938 107.125 249.117188 118.078125 C 248.953125 119.121094 248.921875 119.679688 248.433594 120.988281 C 247.351562 122.371094 246.160156 124.097656 245.035156 124.9375 C 243.914062 125.769531 241.527344 126.570312 240.742188 127.183594 C 238.277344 128.621094 238.269531 130.261719 240.277344 130.316406 C 243.710938 129.910156 247.785156 129.632812 250.59375 125.386719 C 251.347656 124.207031 252.242188 120.996094 252.28125 119.019531 C 252.535156 107.464844 252.132812 98.835938 250.398438 90.484375 Z M 224.34375 100.101562 C 224.375 98.515625 224.523438 96.417969 224.609375 95.101562 C 224.648438 94.613281 224.765625 94.0625 225.230469 93.9375 C 225.707031 93.8125 226.546875 94.417969 226.554688 93.90625 C 226.460938 92.902344 226.257812 91.410156 225.691406 90.703125 C 224.914062 89.550781 222.851562 89.832031 222.488281 91.636719 C 222.496094 92.304688 222.796875 92.660156 222.742188 93.269531 C 222.648438 93.609375 222.292969 93.84375 221.445312 93.441406 C 221.585938 93.316406 220.894531 92.359375 220.894531 92.359375 C 220.230469 91.953125 219.34375 92.382812 218.777344 92.746094 C 218.460938 93.324219 218.234375 94.308594 218.589844 95.3125 C 219.523438 97.078125 222.78125 100.070312 224.34375 100.101562 Z M 224.34375 100.101562 " fill-opacity="1" fill-rule="nonzero"/><path fill="#ffffff" d="M 223.25 86.582031 C 225.527344 89.375 227.851562 92.203125 230.191406 95.078125 C 230.695312 101.503906 230.828125 106.757812 231.328125 113.179688 C 231.257812 115.902344 230.417969 118.273438 229.617188 118.613281 C 229.617188 118.613281 228.410156 119.316406 227.601562 118.546875 C 227.011719 118.304688 224.65625 114.617188 224.65625 114.617188 C 223.449219 113.515625 222.65625 113.824219 221.800781 114.617188 C 219.4375 116.898438 218.375 121.171875 216.773438 124.113281 C 216.351562 124.773438 215.1875 125.332031 213.886719 124.066406 C 210.597656 119.5625 212.527344 113.164062 212.121094 114.8125 C 209.191406 118.117188 210.480469 123.582031 211.144531 124.765625 C 212.105469 126.691406 212.890625 127.9375 214.773438 128.894531 C 216.484375 130.152344 217.820312 129.359375 218.550781 128.480469 C 220.277344 126.683594 220.300781 122.136719 221.109375 121.21875 C 221.671875 119.5625 223.109375 119.84375 223.800781 120.582031 C 224.476562 121.546875 225.269531 122.167969 226.25 122.703125 C 227.859375 124.128906 229.78125 124.382812 231.667969 123.085938 C 232.960938 122.363281 233.808594 121.421875 234.5625 119.5625 C 235.402344 117.324219 234.941406 107.03125 234.769531 100.855469 C 235.976562 102.410156 237.148438 104.035156 238.339844 105.660156 C 238.859375 110.816406 239.15625 115.949219 238.984375 121.1875 C 238.859375 122.238281 242.640625 118.078125 242.609375 116.105469 C 242.59375 114.511719 242.609375 113.0625 242.609375 111.703125 C 244.425781 114.441406 246.199219 117.261719 247.863281 120.246094 C 248.90625 119.703125 248.5625 113.832031 247.902344 113.023438 C 245.984375 109.804688 243.425781 106.453125 241.660156 104.058594 C 241.542969 103.757812 241.480469 103.414062 241.339844 103.128906 C 240.632812 101.488281 241.078125 100.164062 240.742188 98.421875 C 240.414062 96.675781 240.5 94.0625 239.996094 91.984375 C 239.855469 91.175781 239.4375 88.582031 239.5625 88.339844 C 239.761719 87.757812 240.539062 88.355469 240.921875 87.6875 C 241.488281 87.0625 238.953125 80.492188 237.664062 78.613281 C 237.195312 77.773438 236.355469 78.058594 235.316406 79.429688 C 234.359375 80.332031 234.714844 82.382812 235.082031 84.335938 C 235.992188 89.0625 236.753906 93.59375 237.40625 98.082031 C 236.15625 96.410156 234.640625 94.433594 233.167969 92.539062 L 233.105469 92.195312 C 233.105469 92.109375 232.898438 88.121094 232.710938 87.171875 C 232.679688 86.792969 232.585938 86.675781 232.992188 86.722656 C 233.417969 87.078125 233.472656 87.101562 233.746094 87.226562 C 234.179688 87.304688 234.5625 86.566406 234.304688 85.890625 L 230.285156 78.488281 C 229.964844 78.167969 229.546875 77.828125 229.039062 78.574219 C 228.550781 79 228.03125 79.777344 228.046875 80.773438 C 228.171875 82.523438 228.472656 84.3125 228.589844 86.070312 L 228.761719 87.015625 C 228.582031 86.808594 228.363281 86.542969 228.269531 86.449219 C 224.859375 82.859375 229.839844 85.867188 227.617188 83.089844 C 225.738281 81.023438 225.191406 80.378906 223.574219 79.132812 C 222.765625 78.613281 222.277344 77.617188 222.011719 79.3125 C 221.910156 80.796875 221.800781 82.53125 221.894531 83.78125 C 221.894531 84.5 222.617188 85.804688 223.25 86.582031 Z M 154.042969 94.972656 C 156.003906 95.78125 157.253906 92.046875 158.0625 87.957031 C 158.605469 86.808594 159.027344 86.683594 159.308594 87.273438 C 159.238281 92.714844 159.695312 93.921875 161.09375 95.578125 C 164.210938 97.988281 166.792969 95.878906 167.003906 95.679688 L 169.429688 93.253906 C 169.964844 92.683594 170.691406 92.644531 171.453125 93.152344 C 172.199219 93.820312 172.097656 94.988281 173.683594 95.796875 C 175.019531 96.332031 177.882812 95.917969 178.542969 94.769531 C 179.4375 93.246094 179.652344 92.714844 180.058594 92.140625 C 180.695312 91.292969 181.785156 91.675781 181.785156 91.9375 C 181.683594 92.414062 181.046875 92.886719 181.480469 93.734375 C 182.242188 94.300781 182.414062 93.9375 182.863281 93.8125 C 184.453125 93.050781 185.632812 89.613281 185.632812 89.613281 C 185.703125 88.332031 184.988281 88.441406 184.519531 88.703125 C 183.914062 89.070312 183.875 89.195312 183.269531 89.566406 C 182.492188 89.683594 180.992188 90.199219 180.253906 89.046875 C 179.492188 87.664062 179.476562 85.734375 178.898438 84.34375 C 178.898438 84.242188 177.890625 82.140625 178.828125 82.011719 C 179.304688 82.097656 180.308594 82.359375 180.46875 81.519531 C 180.960938 80.695312 179.40625 78.347656 178.347656 77.160156 C 177.421875 76.148438 176.140625 76.023438 174.902344 77.058594 C 174.03125 77.859375 174.15625 78.746094 173.984375 79.59375 C 173.769531 80.554688 173.816406 81.753906 174.800781 83.035156 C 175.664062 84.738281 177.242188 86.941406 176.722656 90.019531 C 176.722656 90.019531 175.804688 91.480469 174.195312 91.292969 C 173.527344 91.144531 172.4375 90.859375 171.863281 86.582031 C 171.429688 83.339844 171.972656 78.808594 170.597656 76.683594 C 170.097656 75.402344 169.742188 74.164062 168.527344 76.359375 C 168.203125 77.222656 166.800781 78.527344 167.820312 81.226562 C 168.652344 82.925781 168.988281 85.703125 168.613281 88.796875 C 168.039062 89.675781 167.914062 89.972656 167.160156 90.851562 C 166.101562 91.984375 164.960938 91.699219 164.082031 91.269531 C 163.257812 90.71875 162.617188 90.429688 162.246094 88.671875 C 162.316406 85.875 162.472656 81.289062 161.957031 80.316406 C 161.203125 78.808594 159.960938 79.351562 159.421875 79.808594 C 156.867188 82.148438 155.605469 86.09375 154.835938 89.226562 C 154.128906 91.511719 153.375 90.859375 152.847656 89.933594 C 151.554688 88.71875 151.46875 79.257812 149.90625 80.820312 C 147.394531 87.925781 151.320312 95.734375 154.042969 94.972656 Z M 154.042969 94.972656 " fill-opacity="1" fill-rule="nonzero"/><path fill="#ffffff" d="M 191.214844 110.242188 L 190.46875 109.8125 L 175.84375 109.742188 C 175.089844 109.457031 175.316406 109.207031 175.84375 109.003906 C 179.335938 108.53125 185.546875 107.519531 185.960938 101.554688 C 185.890625 98.453125 184.621094 96.417969 180.8125 95.859375 C 178.019531 96.074219 176.023438 98.789062 176.34375 101.765625 C 176.210938 102.574219 176.605469 104.144531 175.789062 104.324219 C 170.417969 104.8125 164.5625 108.171875 164.367188 110.582031 C 164.042969 110.808594 163.3125 110.15625 163.402344 109.128906 C 163.203125 104.96875 161.832031 100.265625 159.710938 96.644531 C 158.015625 94.949219 158.542969 95.507812 157.410156 96.308594 C 156.679688 97.148438 156.546875 97.722656 156.585938 99.394531 C 156.585938 99.457031 157.953125 103.273438 159.113281 105.949219 C 159.882812 108.695312 160.605469 111.828125 160.085938 114.789062 C 158.28125 118.707031 154.648438 122.222656 151.152344 124.128906 C 149.347656 124.710938 147.800781 124.5 147.417969 124.097656 C 146.308594 123.351562 146.363281 121.972656 146.445312 121.949219 C 149.394531 119.890625 152.769531 118.234375 155.410156 112.691406 C 156.1875 110.574219 156.421875 109.292969 155.652344 106.019531 C 155.347656 104.792969 154.960938 103.796875 154.121094 102.925781 C 154.59375 102.613281 155.957031 103.648438 156.164062 103.035156 C 155.855469 101.464844 154.789062 99.363281 153.59375 98.292969 C 152.542969 97.335938 151.398438 97.226562 150.433594 98.105469 C 149.347656 98.710938 149.113281 100.871094 149.632812 102.769531 C 150.210938 104.199219 151.773438 104.441406 152.890625 107.308594 C 152.890625 107.371094 153.296875 109.457031 152.722656 110.273438 C 152.261719 111.703125 146.316406 116.375 145.988281 116.585938 C 145.824219 116.789062 145.894531 116.484375 145.871094 115.707031 C 145.832031 114.757812 146.253906 112.519531 146.136719 112.503906 C 144.199219 113.753906 143.554688 117.589844 143.203125 118.722656 C 138.304688 122.105469 132.761719 124.625 129.558594 128.0625 C 127.886719 130.667969 141.050781 125.066406 142.582031 124.390625 C 142.925781 124.640625 142.886719 125.816406 143.804688 126.863281 C 145.171875 128.714844 148.0625 129.859375 150.902344 129.148438 C 155.644531 127.433594 158.390625 124.199219 161.171875 120.613281 C 161.570312 120.03125 162.191406 119.585938 162.765625 120.03125 C 164.679688 124.3125 170.207031 127.347656 177.335938 127.664062 C 178.992188 125.652344 178.191406 124.679688 177.523438 124.257812 C 177.523438 124.199219 174 122.859375 173.464844 121.523438 C 173.136719 120.308594 173.929688 119.246094 175.519531 118.4375 C 180.097656 117.882812 184.597656 117.269531 188.960938 115.871094 C 189.007812 114.410156 189.855469 112.214844 190.4375 111.269531 C 190.996094 110.304688 191.300781 110.589844 191.214844 110.242188 Z M 179.1875 101.128906 C 179.40625 100.761719 180.128906 100.777344 180.804688 101.175781 C 181.480469 101.5625 181.863281 102.1875 181.636719 102.550781 C 181.417969 102.925781 180.6875 102.902344 180.011719 102.503906 C 179.335938 102.117188 178.96875 101.503906 179.1875 101.128906 Z M 173.300781 115.902344 C 171.730469 116.4375 170.222656 116.859375 170.222656 119.128906 C 170.804688 122.285156 169.421875 121.203125 168.605469 120.769531 C 167.640625 120.078125 164.929688 118.40625 164.539062 114.796875 C 164.476562 113.933594 165.152344 113.210938 166.234375 113.210938 C 167.859375 113.65625 170.261719 113.6875 172.34375 113.902344 C 174.046875 114.011719 174.894531 115.347656 173.300781 115.902344 Z M 119.132812 80.875 C 120.8125 81.683594 123.984375 81.339844 123.84375 78.621094 C 123.84375 78.378906 123.78125 77.570312 123.757812 77.351562 C 123.417969 76.550781 122.484375 76.746094 122.265625 77.578125 C 122.195312 77.851562 122.382812 78.285156 122.140625 78.425781 C 122.003906 78.566406 121.464844 78.480469 121.488281 77.734375 C 121.488281 77.492188 121.308594 77.238281 121.210938 77.089844 C 121.101562 77.019531 121.039062 76.996094 120.84375 76.996094 C 120.609375 77.003906 120.609375 77.066406 120.484375 77.265625 C 120.433594 77.460938 120.355469 77.664062 120.355469 77.890625 C 120.324219 78.152344 120.222656 78.246094 120.027344 78.292969 C 119.808594 78.292969 119.855469 78.316406 119.683594 78.199219 C 119.578125 78.082031 119.445312 78.039062 119.445312 77.84375 C 119.445312 77.640625 119.398438 77.3125 119.335938 77.175781 C 119.242188 77.050781 119.09375 76.996094 118.921875 76.949219 C 118.007812 76.949219 117.945312 78 118 78.402344 C 117.914062 78.472656 117.882812 80.355469 119.132812 80.875 Z M 119.132812 80.875 " fill-opacity="1" fill-rule="nonzero"/><path fill="#ffffff" d="M 170.804688 98.601562 C 170.804688 98.359375 170.628906 98.113281 170.527344 97.957031 C 170.417969 97.886719 170.355469 97.863281 170.160156 97.863281 C 169.925781 97.871094 169.933594 97.933594 169.804688 98.136719 C 169.75 98.335938 169.671875 98.53125 169.671875 98.757812 C 169.648438 99.03125 169.539062 99.121094 169.34375 99.160156 C 169.125 99.160156 169.171875 99.183594 168.996094 99.078125 C 168.886719 98.960938 168.753906 98.914062 168.753906 98.71875 C 168.753906 98.515625 168.707031 98.183594 168.644531 98.050781 C 168.550781 97.925781 168.402344 97.871094 168.234375 97.832031 C 167.316406 97.832031 167.253906 98.882812 167.300781 99.277344 C 167.230469 99.355469 167.191406 101.230469 168.441406 101.757812 C 170.128906 102.558594 174.132812 102.09375 173.152344 99.503906 C 173.152344 99.261719 173.09375 98.453125 173.070312 98.230469 C 172.726562 97.429688 171.785156 97.628906 171.574219 98.453125 C 171.511719 98.726562 171.699219 99.160156 171.453125 99.300781 C 171.328125 99.441406 170.78125 99.355469 170.804688 98.601562 Z M 197.21875 93.105469 C 198.898438 93.914062 202.0625 93.570312 201.921875 90.859375 C 201.921875 90.617188 201.859375 89.808594 201.835938 89.582031 C 201.492188 88.78125 200.5625 88.984375 200.351562 89.808594 C 200.28125 90.082031 200.46875 90.515625 200.21875 90.65625 C 200.078125 90.796875 199.542969 90.71875 199.566406 89.964844 C 199.566406 89.722656 199.386719 89.464844 199.285156 89.320312 C 199.175781 89.25 199.113281 89.226562 198.914062 89.226562 C 198.679688 89.242188 198.6875 89.296875 198.554688 89.496094 C 198.5 89.699219 198.421875 89.894531 198.421875 90.121094 C 198.390625 90.390625 198.289062 90.484375 198.097656 90.523438 C 197.878906 90.523438 197.925781 90.546875 197.746094 90.4375 C 197.636719 90.320312 197.511719 90.273438 197.511719 90.082031 C 197.511719 89.878906 197.464844 89.542969 197.40625 89.402344 C 197.304688 89.28125 197.164062 89.226562 196.984375 89.1875 C 196.066406 89.1875 196.003906 90.234375 196.058594 90.632812 C 196.003906 90.710938 195.964844 92.585938 197.21875 93.105469 Z M 198.351562 82.59375 C 198.953125 84.273438 197.894531 85.875 198.523438 86.109375 C 199.089844 86.371094 199.898438 84.375 200.195312 82.53125 C 200.546875 81.039062 199.480469 77.984375 197.972656 77.351562 C 197.054688 77.136719 195.75 77.679688 196.167969 78.90625 C 195.957031 79.5 198.019531 81.503906 198.351562 82.59375 Z M 213.863281 121.964844 C 215.039062 121.972656 216.390625 119.285156 216.964844 116.617188 C 217.285156 112.945312 216.75 110.714844 216.65625 108.554688 C 216.554688 106.402344 214.222656 89.957031 213.738281 88.324219 C 213.171875 85.238281 216.019531 87.910156 215.707031 86.117188 C 214.71875 83.851562 212.269531 80.5625 211.492188 78.597656 C 211.027344 77.757812 211.226562 77.011719 210.1875 78.378906 C 209.230469 81.527344 208.894531 84.09375 209.261719 86.054688 C 211.734375 98.960938 214.269531 109.6875 213.863281 121.964844 Z M 243.066406 88.222656 C 243.339844 89.0625 242.65625 91.777344 243.222656 92.023438 C 243.742188 92.304688 244.472656 90.152344 244.746094 88.152344 C 244.894531 87.054688 244.09375 83.230469 242.71875 82.546875 C 241.878906 82.3125 240.6875 82.898438 241.078125 84.234375 C 240.882812 84.878906 242.765625 87.039062 243.066406 88.222656 Z M 141.066406 116.648438 C 141.570312 116.859375 142.265625 115.273438 142.527344 113.800781 C 142.675781 112.992188 141.898438 110.1875 140.585938 109.679688 C 139.777344 109.511719 138.671875 109.726562 139.015625 110.925781 C 138.976562 111.570312 140.800781 112.347656 140.910156 113.847656 C 141.175781 114.472656 140.523438 116.46875 141.066406 116.648438 Z M 105.644531 80.765625 C 105.898438 81.410156 105.386719 83.472656 105.921875 83.667969 C 106.414062 83.882812 107.105469 82.234375 107.363281 80.71875 C 107.507812 79.878906 107.394531 77.035156 105.449219 76.449219 C 104.648438 76.273438 103.535156 76.714844 103.902344 77.734375 C 103.714844 78.214844 105.355469 79.863281 105.644531 80.765625 Z M 143.757812 89.886719 C 142.273438 90.695312 141.6875 93.089844 142.621094 94.480469 C 143.484375 95.71875 144.851562 95.257812 145.039062 95.257812 C 146.5 95.4375 147.363281 92.523438 147.363281 92.523438 C 147.363281 92.523438 147.410156 91.707031 145.675781 93.253906 C 144.945312 93.394531 144.851562 93.121094 144.675781 92.699219 C 144.519531 91.945312 144.550781 91.183594 144.898438 90.429688 C 145.148438 89.707031 144.589844 89.390625 143.757812 89.886719 Z M 154.96875 80.921875 C 155.519531 80.515625 155.707031 80.253906 155.886719 79.570312 C 156.109375 78.433594 154.679688 80.105469 154.5 78.839844 C 154.183594 77.664062 155.101562 77.183594 155.972656 76.046875 C 156.003906 75.261719 155.988281 74.710938 154.921875 75.347656 C 154.175781 75.851562 152.683594 77.390625 152.636719 79.164062 C 152.589844 80.167969 152.402344 80.160156 153.0625 80.796875 C 153.539062 81.488281 154.011719 81.417969 154.96875 80.921875 Z M 165.066406 81.527344 C 166.03125 78.914062 166.03125 77.8125 166.101562 76.699219 C 165.808594 75.011719 164.664062 75.066406 163.910156 76.941406 C 163.582031 77.648438 163.203125 81.371094 163.265625 81.371094 C 163.007812 82.484375 164.421875 82.957031 165.066406 81.527344 Z M 228.589844 100.054688 C 228.589844 100.054688 220.792969 105.601562 220.605469 105.792969 C 219.828125 106.476562 220.214844 108.902344 220.605469 108.625 C 221.15625 108.84375 229.003906 103.515625 228.847656 102.894531 C 229.210938 102.910156 229.390625 99.777344 228.589844 100.054688 Z M 227.632812 115.09375 C 228.15625 115.371094 229.53125 113.671875 229.476562 111.546875 C 229.632812 110.453125 229.078125 106.429688 227.710938 105.746094 C 226.871094 105.515625 225.753906 106.230469 226.140625 107.558594 C 225.945312 108.195312 227.105469 110.429688 227.410156 111.609375 C 227.679688 112.457031 227.066406 114.84375 227.632812 115.09375 Z M 183.472656 126.722656 C 183.472656 126.792969 184.132812 127.363281 184.910156 126.910156 C 186.542969 126.28125 187.570312 125.675781 189.855469 125.167969 C 190.453125 125.160156 190.414062 123.550781 189.464844 123.496094 C 188.230469 123.558594 187.078125 123.621094 185.84375 124.601562 C 185.082031 124.773438 184.957031 124.3125 184.785156 123.894531 C 184.597656 122.859375 185.214844 122.144531 185.082031 121.375 C 185.128906 121.421875 184.375 120.730469 183.605469 121.117188 C 183.566406 121.117188 181.886719 122.253906 181.347656 123.046875 C 181.015625 123.304688 181.054688 123.519531 181.15625 123.949219 C 181.410156 124.539062 181.871094 124.359375 182.382812 124.082031 C 183.066406 123.988281 183.394531 124.4375 183.339844 125.253906 C 183.011719 126.289062 183.472656 126.667969 183.472656 126.722656 Z M 234.40625 128.015625 C 234.148438 128.457031 233.976562 129.125 234.769531 129.335938 C 236.234375 129.75 239.597656 127.554688 239.597656 127.515625 C 240.144531 127.105469 239.964844 126.335938 239.917969 126.335938 C 239.597656 125.96875 238.882812 126.179688 238.402344 126.125 C 238.175781 126.125 237.414062 126.007812 237.78125 125.339844 C 238.074219 124.929688 238.183594 124.671875 238.386719 124.167969 C 238.613281 123.660156 238.417969 123.328125 237.59375 123.054688 C 236.761719 122.898438 236.425781 122.976562 235.503906 123.054688 C 235.003906 123.164062 234.832031 123.382812 234.738281 123.988281 C 234.777344 124.90625 235.332031 124.859375 235.90625 125.222656 C 236.242188 125.652344 236.457031 126.039062 235.882812 126.730469 C 235.339844 127.238281 234.957031 127.515625 234.40625 128.015625 Z M 232.914062 168.367188 L 221.25 168.367188 L 221.25 164.480469 C 221.25 162.332031 219.507812 160.59375 217.363281 160.59375 C 215.21875 160.59375 213.476562 162.332031 213.476562 164.480469 L 213.476562 168.367188 L 120.175781 168.367188 C 120.175781 168.367188 120.175781 176.140625 143.5 176.140625 L 213.476562 176.140625 L 213.476562 180.03125 C 213.476562 182.175781 215.21875 183.917969 217.363281 183.917969 C 219.507812 183.917969 221.25 182.175781 221.25 180.03125 L 221.25 176.140625 L 229.027344 176.140625 L 229.027344 180.03125 C 229.027344 182.175781 230.765625 183.917969 232.914062 183.917969 C 235.058594 183.917969 236.800781 182.175781 236.800781 180.03125 L 236.800781 172.253906 C 236.800781 170.109375 235.058594 168.367188 232.914062 168.367188 Z M 232.914062 168.367188 " fill-opacity="1" fill-rule="nonzero"/><g fill="#000000" fill-opacity="1"><g transform="translate(73.094455, 272.860632)"><g><path d="M 9.65625 0.21875 C 8.09375 0.21875 6.6875 -0.0351562 5.4375 -0.546875 C 4.195312 -1.054688 3.203125 -1.8125 2.453125 -2.8125 C 1.710938 -3.8125 1.320312 -5.015625 1.28125 -6.421875 L 6.84375 -6.421875 C 6.925781 -5.628906 7.203125 -5.019531 7.671875 -4.59375 C 8.140625 -4.175781 8.753906 -3.96875 9.515625 -3.96875 C 10.285156 -3.96875 10.894531 -4.144531 11.34375 -4.5 C 11.789062 -4.863281 12.015625 -5.363281 12.015625 -6 C 12.015625 -6.519531 11.835938 -6.953125 11.484375 -7.296875 C 11.128906 -7.648438 10.691406 -7.9375 10.171875 -8.15625 C 9.648438 -8.382812 8.910156 -8.640625 7.953125 -8.921875 C 6.566406 -9.359375 5.429688 -9.789062 4.546875 -10.21875 C 3.671875 -10.644531 2.914062 -11.273438 2.28125 -12.109375 C 1.65625 -12.941406 1.34375 -14.03125 1.34375 -15.375 C 1.34375 -17.375 2.066406 -18.9375 3.515625 -20.0625 C 4.960938 -21.195312 6.847656 -21.765625 9.171875 -21.765625 C 11.535156 -21.765625 13.441406 -21.195312 14.890625 -20.0625 C 16.335938 -18.9375 17.113281 -17.363281 17.21875 -15.34375 L 11.5625 -15.34375 C 11.519531 -16.039062 11.265625 -16.585938 10.796875 -16.984375 C 10.328125 -17.378906 9.722656 -17.578125 8.984375 -17.578125 C 8.359375 -17.578125 7.847656 -17.410156 7.453125 -17.078125 C 7.066406 -16.742188 6.875 -16.257812 6.875 -15.625 C 6.875 -14.925781 7.203125 -14.382812 7.859375 -14 C 8.515625 -13.613281 9.535156 -13.195312 10.921875 -12.75 C 12.304688 -12.28125 13.429688 -11.832031 14.296875 -11.40625 C 15.160156 -10.976562 15.90625 -10.351562 16.53125 -9.53125 C 17.164062 -8.71875 17.484375 -7.671875 17.484375 -6.390625 C 17.484375 -5.171875 17.171875 -4.0625 16.546875 -3.0625 C 15.929688 -2.0625 15.03125 -1.265625 13.84375 -0.671875 C 12.664062 -0.078125 11.269531 0.21875 9.65625 0.21875 Z M 9.65625 0.21875 "/></g></g></g><g fill="#000000" fill-opacity="1"><g transform="translate(91.893372, 272.860632)"><g><path d="M 0.859375 -8.5625 C 0.859375 -10.3125 1.1875 -11.847656 1.84375 -13.171875 C 2.507812 -14.503906 3.410156 -15.523438 4.546875 -16.234375 C 5.691406 -16.953125 6.96875 -17.3125 8.375 -17.3125 C 9.582031 -17.3125 10.640625 -17.066406 11.546875 -16.578125 C 12.453125 -16.085938 13.148438 -15.441406 13.640625 -14.640625 L 13.640625 -17.0625 L 18.859375 -17.0625 L 18.859375 0 L 13.640625 0 L 13.640625 -2.421875 C 13.128906 -1.617188 12.421875 -0.972656 11.515625 -0.484375 C 10.609375 0.00390625 9.550781 0.25 8.34375 0.25 C 6.957031 0.25 5.691406 -0.109375 4.546875 -0.828125 C 3.410156 -1.554688 2.507812 -2.585938 1.84375 -3.921875 C 1.1875 -5.265625 0.859375 -6.8125 0.859375 -8.5625 Z M 13.640625 -8.53125 C 13.640625 -9.832031 13.273438 -10.859375 12.546875 -11.609375 C 11.828125 -12.367188 10.945312 -12.75 9.90625 -12.75 C 8.863281 -12.75 7.976562 -12.375 7.25 -11.625 C 6.53125 -10.882812 6.171875 -9.863281 6.171875 -8.5625 C 6.171875 -7.257812 6.53125 -6.222656 7.25 -5.453125 C 7.976562 -4.691406 8.863281 -4.3125 9.90625 -4.3125 C 10.945312 -4.3125 11.828125 -4.6875 12.546875 -5.4375 C 13.273438 -6.195312 13.640625 -7.226562 13.640625 -8.53125 Z M 13.640625 -8.53125 "/></g></g></g><g fill="#000000" fill-opacity="1"><g transform="translate(112.648598, 272.860632)"><g><path d="M 18.75 -17.0625 L 18.75 0 L 13.515625 0 L 13.515625 -2.328125 C 12.984375 -1.566406 12.265625 -0.957031 11.359375 -0.5 C 10.453125 -0.0390625 9.445312 0.1875 8.34375 0.1875 C 7.039062 0.1875 5.890625 -0.101562 4.890625 -0.6875 C 3.890625 -1.269531 3.113281 -2.109375 2.5625 -3.203125 C 2.019531 -4.304688 1.75 -5.601562 1.75 -7.09375 L 1.75 -17.0625 L 6.9375 -17.0625 L 6.9375 -7.796875 C 6.9375 -6.648438 7.234375 -5.757812 7.828125 -5.125 C 8.421875 -4.5 9.21875 -4.1875 10.21875 -4.1875 C 11.226562 -4.1875 12.03125 -4.5 12.625 -5.125 C 13.21875 -5.757812 13.515625 -6.648438 13.515625 -7.796875 L 13.515625 -17.0625 Z M 18.75 -17.0625 "/></g></g></g><g fill="#000000" fill-opacity="1"><g transform="translate(133.250984, 272.860632)"><g><path d="M 0.859375 -8.5625 C 0.859375 -10.3125 1.1875 -11.847656 1.84375 -13.171875 C 2.507812 -14.503906 3.410156 -15.523438 4.546875 -16.234375 C 5.691406 -16.953125 6.96875 -17.3125 8.375 -17.3125 C 9.5 -17.3125 10.523438 -17.078125 11.453125 -16.609375 C 12.378906 -16.140625 13.109375 -15.503906 13.640625 -14.703125 L 13.640625 -22.625 L 18.859375 -22.625 L 18.859375 0 L 13.640625 0 L 13.640625 -2.453125 C 13.148438 -1.628906 12.453125 -0.972656 11.546875 -0.484375 C 10.640625 0.00390625 9.582031 0.25 8.375 0.25 C 6.96875 0.25 5.691406 -0.109375 4.546875 -0.828125 C 3.410156 -1.554688 2.507812 -2.585938 1.84375 -3.921875 C 1.1875 -5.265625 0.859375 -6.8125 0.859375 -8.5625 Z M 13.640625 -8.53125 C 13.640625 -9.832031 13.273438 -10.859375 12.546875 -11.609375 C 11.828125 -12.367188 10.945312 -12.75 9.90625 -12.75 C 8.863281 -12.75 7.976562 -12.375 7.25 -11.625 C 6.53125 -10.882812 6.171875 -9.863281 6.171875 -8.5625 C 6.171875 -7.257812 6.53125 -6.222656 7.25 -5.453125 C 7.976562 -4.691406 8.863281 -4.3125 9.90625 -4.3125 C 10.945312 -4.3125 11.828125 -4.6875 12.546875 -5.4375 C 13.273438 -6.195312 13.640625 -7.226562 13.640625 -8.53125 Z M 13.640625 -8.53125 "/></g></g></g><g fill="#000000" fill-opacity="1"><g transform="translate(154.006211, 272.860632)"><g><path d="M 4.53125 -18.84375 C 3.613281 -18.84375 2.863281 -19.109375 2.28125 -19.640625 C 1.695312 -20.179688 1.40625 -20.851562 1.40625 -21.65625 C 1.40625 -22.46875 1.695312 -23.144531 2.28125 -23.6875 C 2.863281 -24.226562 3.613281 -24.5 4.53125 -24.5 C 5.425781 -24.5 6.160156 -24.226562 6.734375 -23.6875 C 7.316406 -23.144531 7.609375 -22.46875 7.609375 -21.65625 C 7.609375 -20.851562 7.316406 -20.179688 6.734375 -19.640625 C 6.160156 -19.109375 5.425781 -18.84375 4.53125 -18.84375 Z M 7.125 -17.0625 L 7.125 0 L 1.890625 0 L 1.890625 -17.0625 Z M 7.125 -17.0625 "/></g></g></g><g fill="#000000" fill-opacity="1"><g transform="translate(163.02358, 272.860632)"><g/></g></g><g fill="#000000" fill-opacity="1"><g transform="translate(169.503859, 272.860632)"><g><path d="M 15.265625 -3.796875 L 7.25 -3.796875 L 5.96875 0 L 0.484375 0 L 8.25 -21.46875 L 14.3125 -21.46875 L 22.078125 0 L 16.546875 0 Z M 13.90625 -7.828125 L 11.25 -15.6875 L 8.625 -7.828125 Z M 13.90625 -7.828125 "/></g></g></g><g fill="#000000" fill-opacity="1"><g transform="translate(192.031985, 272.860632)"><g><path d="M 7.125 -14.21875 C 7.738281 -15.15625 8.503906 -15.894531 9.421875 -16.4375 C 10.335938 -16.976562 11.351562 -17.25 12.46875 -17.25 L 12.46875 -11.71875 L 11.03125 -11.71875 C 9.726562 -11.71875 8.75 -11.4375 8.09375 -10.875 C 7.445312 -10.3125 7.125 -9.328125 7.125 -7.921875 L 7.125 0 L 1.890625 0 L 1.890625 -17.0625 L 7.125 -17.0625 Z M 7.125 -14.21875 "/></g></g></g><g fill="#000000" fill-opacity="1"><g transform="translate(205.114802, 272.860632)"><g><path d="M 0.859375 -8.5625 C 0.859375 -10.3125 1.1875 -11.847656 1.84375 -13.171875 C 2.507812 -14.503906 3.410156 -15.523438 4.546875 -16.234375 C 5.691406 -16.953125 6.96875 -17.3125 8.375 -17.3125 C 9.582031 -17.3125 10.640625 -17.066406 11.546875 -16.578125 C 12.453125 -16.085938 13.148438 -15.441406 13.640625 -14.640625 L 13.640625 -17.0625 L 18.859375 -17.0625 L 18.859375 0 L 13.640625 0 L 13.640625 -2.421875 C 13.128906 -1.617188 12.421875 -0.972656 11.515625 -0.484375 C 10.609375 0.00390625 9.550781 0.25 8.34375 0.25 C 6.957031 0.25 5.691406 -0.109375 4.546875 -0.828125 C 3.410156 -1.554688 2.507812 -2.585938 1.84375 -3.921875 C 1.1875 -5.265625 0.859375 -6.8125 0.859375 -8.5625 Z M 13.640625 -8.53125 C 13.640625 -9.832031 13.273438 -10.859375 12.546875 -11.609375 C 11.828125 -12.367188 10.945312 -12.75 9.90625 -12.75 C 8.863281 -12.75 7.976562 -12.375 7.25 -11.625 C 6.53125 -10.882812 6.171875 -9.863281 6.171875 -8.5625 C 6.171875 -7.257812 6.53125 -6.222656 7.25 -5.453125 C 7.976562 -4.691406 8.863281 -4.3125 9.90625 -4.3125 C 10.945312 -4.3125 11.828125 -4.6875 12.546875 -5.4375 C 13.273438 -6.195312 13.640625 -7.226562 13.640625 -8.53125 Z M 13.640625 -8.53125 "/></g></g></g><g fill="#000000" fill-opacity="1"><g transform="translate(225.870029, 272.860632)"><g><path d="M 7.125 -14.640625 C 7.613281 -15.441406 8.316406 -16.085938 9.234375 -16.578125 C 10.148438 -17.066406 11.203125 -17.3125 12.390625 -17.3125 C 13.796875 -17.3125 15.066406 -16.953125 16.203125 -16.234375 C 17.347656 -15.523438 18.25 -14.503906 18.90625 -13.171875 C 19.570312 -11.847656 19.90625 -10.3125 19.90625 -8.5625 C 19.90625 -6.8125 19.570312 -5.265625 18.90625 -3.921875 C 18.25 -2.585938 17.347656 -1.554688 16.203125 -0.828125 C 15.066406 -0.109375 13.796875 0.25 12.390625 0.25 C 11.179688 0.25 10.128906 0.0078125 9.234375 -0.46875 C 8.335938 -0.945312 7.632812 -1.585938 7.125 -2.390625 L 7.125 0 L 1.890625 0 L 1.890625 -22.625 L 7.125 -22.625 Z M 14.578125 -8.5625 C 14.578125 -9.863281 14.21875 -10.882812 13.5 -11.625 C 12.78125 -12.375 11.890625 -12.75 10.828125 -12.75 C 9.785156 -12.75 8.898438 -12.367188 8.171875 -11.609375 C 7.453125 -10.859375 7.09375 -9.832031 7.09375 -8.53125 C 7.09375 -7.226562 7.453125 -6.195312 8.171875 -5.4375 C 8.898438 -4.6875 9.785156 -4.3125 10.828125 -4.3125 C 11.867188 -4.3125 12.753906 -4.691406 13.484375 -5.453125 C 14.210938 -6.222656 14.578125 -7.257812 14.578125 -8.5625 Z M 14.578125 -8.5625 "/></g></g></g><g fill="#000000" fill-opacity="1"><g transform="translate(246.625255, 272.860632)"><g><path d="M 4.53125 -18.84375 C 3.613281 -18.84375 2.863281 -19.109375 2.28125 -19.640625 C 1.695312 -20.179688 1.40625 -20.851562 1.40625 -21.65625 C 1.40625 -22.46875 1.695312 -23.144531 2.28125 -23.6875 C 2.863281 -24.226562 3.613281 -24.5 4.53125 -24.5 C 5.425781 -24.5 6.160156 -24.226562 6.734375 -23.6875 C 7.316406 -23.144531 7.609375 -22.46875 7.609375 -21.65625 C 7.609375 -20.851562 7.316406 -20.179688 6.734375 -19.640625 C 6.160156 -19.109375 5.425781 -18.84375 4.53125 -18.84375 Z M 7.125 -17.0625 L 7.125 0 L 1.890625 0 L 1.890625 -17.0625 Z M 7.125 -17.0625 "/></g></g></g><g fill="#000000" fill-opacity="1"><g transform="translate(255.642624, 272.860632)"><g><path d="M 0.859375 -8.5625 C 0.859375 -10.3125 1.1875 -11.847656 1.84375 -13.171875 C 2.507812 -14.503906 3.410156 -15.523438 4.546875 -16.234375 C 5.691406 -16.953125 6.96875 -17.3125 8.375 -17.3125 C 9.582031 -17.3125 10.640625 -17.066406 11.546875 -16.578125 C 12.453125 -16.085938 13.148438 -15.441406 13.640625 -14.640625 L 13.640625 -17.0625 L 18.859375 -17.0625 L 18.859375 0 L 13.640625 0 L 13.640625 -2.421875 C 13.128906 -1.617188 12.421875 -0.972656 11.515625 -0.484375 C 10.609375 0.00390625 9.550781 0.25 8.34375 0.25 C 6.957031 0.25 5.691406 -0.109375 4.546875 -0.828125 C 3.410156 -1.554688 2.507812 -2.585938 1.84375 -3.921875 C 1.1875 -5.265625 0.859375 -6.8125 0.859375 -8.5625 Z M 13.640625 -8.53125 C 13.640625 -9.832031 13.273438 -10.859375 12.546875 -11.609375 C 11.828125 -12.367188 10.945312 -12.75 9.90625 -12.75 C 8.863281 -12.75 7.976562 -12.375 7.25 -11.625 C 6.53125 -10.882812 6.171875 -9.863281 6.171875 -8.5625 C 6.171875 -7.257812 6.53125 -6.222656 7.25 -5.453125 C 7.976562 -4.691406 8.863281 -4.3125 9.90625 -4.3125 C 10.945312 -4.3125 11.828125 -4.6875 12.546875 -5.4375 C 13.273438 -6.195312 13.640625 -7.226562 13.640625 -8.53125 Z M 13.640625 -8.53125 "/></g></g></g></svg>