<svg xmlns="http://www.w3.org/2000/svg" xmlns:xlink="http://www.w3.org/1999/xlink" width="467" zoomAndPan="magnify" viewBox="0 0 350.25 299.999988" height="400" preserveAspectRatio="xMidYMid meet" version="1.0"><defs><g/><clipPath id="id1"><path d="M 104 28.515625 L 314.550781 28.515625 L 314.550781 99 L 104 99 Z M 104 28.515625 " clip-rule="nonzero"/></clipPath><clipPath id="id2"><path d="M 104 98 L 314.550781 98 L 314.550781 161 L 104 161 Z M 104 98 " clip-rule="nonzero"/></clipPath><clipPath id="id3"><path d="M 104 160 L 314.550781 160 L 314.550781 230.582031 L 104 230.582031 Z M 104 160 " clip-rule="nonzero"/></clipPath><clipPath id="id4"><path d="M 34.648438 28.515625 L 105 28.515625 L 105 230.582031 L 34.648438 230.582031 Z M 34.648438 28.515625 " clip-rule="nonzero"/></clipPath><clipPath id="id5"><path d="M 34.648438 28.515625 L 152 28.515625 L 152 230.582031 L 34.648438 230.582031 Z M 34.648438 28.515625 " clip-rule="nonzero"/></clipPath><clipPath id="id6"><path d="M 96 28.515625 L 314.550781 28.515625 L 314.550781 230.582031 L 96 230.582031 Z M 96 28.515625 " clip-rule="nonzero"/></clipPath></defs><g clip-path="url(#id1)"><path fill="#068241" d="M 283.394531 28.515625 L 104.664062 28.515625 L 104.664062 98.460938 L 314.476562 98.460938 L 314.476562 59.601562 C 314.476562 42.433594 300.558594 28.515625 283.394531 28.515625 Z M 283.394531 28.515625 " fill-opacity="1" fill-rule="nonzero"/></g><g clip-path="url(#id2)"><path fill="#eeeeee" d="M 104.664062 98.460938 L 314.476562 98.460938 L 314.476562 160.636719 L 104.664062 160.636719 Z M 104.664062 98.460938 " fill-opacity="1" fill-rule="nonzero"/></g><g clip-path="url(#id3)"><path fill="#141414" d="M 104.664062 230.582031 L 283.394531 230.582031 C 300.558594 230.582031 314.476562 216.664062 314.476562 199.496094 L 314.476562 160.636719 L 104.664062 160.636719 Z M 104.664062 230.582031 " fill-opacity="1" fill-rule="nonzero"/></g><g clip-path="url(#id4)"><path fill="#ec2028" d="M 65.808594 28.515625 C 48.640625 28.515625 34.722656 42.433594 34.722656 59.601562 L 34.722656 199.496094 C 34.722656 216.664062 48.640625 230.582031 65.808594 230.582031 L 104.664062 230.582031 L 104.664062 28.515625 Z M 65.808594 28.515625 " fill-opacity="1" fill-rule="nonzero"/></g><g clip-path="url(#id5)"><path fill="#eeeeee" d="M 151.289062 36.289062 L 96.890625 28.515625 L 65.808594 28.515625 C 48.640625 28.515625 34.722656 42.433594 34.722656 59.601562 L 34.722656 199.496094 C 34.722656 216.664062 48.640625 230.582031 65.808594 230.582031 L 96.890625 230.582031 L 151.289062 222.8125 Z M 151.289062 36.289062 " fill-opacity="1" fill-rule="nonzero"/></g><g clip-path="url(#id6)"><path fill="#ce1126" d="M 283.394531 28.515625 L 96.890625 28.515625 L 144.144531 48.722656 L 96.890625 68.929688 L 144.144531 89.136719 L 96.890625 109.34375 L 144.144531 129.550781 L 96.890625 149.753906 L 144.144531 169.960938 L 96.890625 190.167969 L 144.144531 210.375 L 96.890625 230.582031 L 283.394531 230.582031 C 300.558594 230.582031 314.476562 216.664062 314.476562 199.496094 L 314.476562 59.601562 C 314.476562 42.433594 300.558594 28.515625 283.394531 28.515625 Z M 283.394531 28.515625 " fill-opacity="1" fill-rule="nonzero"/></g><g fill="#000000" fill-opacity="1"><g transform="translate(112.265459, 272.860632)"><g><path d="M 14.890625 -11.015625 C 16.128906 -10.742188 17.125 -10.125 17.875 -9.15625 C 18.632812 -8.1875 19.015625 -7.082031 19.015625 -5.84375 C 19.015625 -4.050781 18.390625 -2.628906 17.140625 -1.578125 C 15.890625 -0.523438 14.140625 0 11.890625 0 L 1.890625 0 L 1.890625 -21.46875 L 11.5625 -21.46875 C 13.738281 -21.46875 15.441406 -20.96875 16.671875 -19.96875 C 17.910156 -18.96875 18.53125 -17.613281 18.53125 -15.90625 C 18.53125 -14.632812 18.195312 -13.582031 17.53125 -12.75 C 16.875 -11.914062 15.992188 -11.335938 14.890625 -11.015625 Z M 7.125 -12.78125 L 10.546875 -12.78125 C 11.398438 -12.78125 12.054688 -12.96875 12.515625 -13.34375 C 12.972656 -13.71875 13.203125 -14.273438 13.203125 -15.015625 C 13.203125 -15.742188 12.972656 -16.300781 12.515625 -16.6875 C 12.054688 -17.082031 11.398438 -17.28125 10.546875 -17.28125 L 7.125 -17.28125 Z M 10.984375 -4.21875 C 11.859375 -4.21875 12.535156 -4.414062 13.015625 -4.8125 C 13.492188 -5.207031 13.734375 -5.785156 13.734375 -6.546875 C 13.734375 -7.296875 13.484375 -7.882812 12.984375 -8.3125 C 12.484375 -8.738281 11.796875 -8.953125 10.921875 -8.953125 L 7.125 -8.953125 L 7.125 -4.21875 Z M 10.984375 -4.21875 "/></g></g></g><g fill="#000000" fill-opacity="1"><g transform="translate(132.409335, 272.860632)"><g><path d="M 0.859375 -8.5625 C 0.859375 -10.3125 1.1875 -11.847656 1.84375 -13.171875 C 2.507812 -14.503906 3.410156 -15.523438 4.546875 -16.234375 C 5.691406 -16.953125 6.96875 -17.3125 8.375 -17.3125 C 9.582031 -17.3125 10.640625 -17.066406 11.546875 -16.578125 C 12.453125 -16.085938 13.148438 -15.441406 13.640625 -14.640625 L 13.640625 -17.0625 L 18.859375 -17.0625 L 18.859375 0 L 13.640625 0 L 13.640625 -2.421875 C 13.128906 -1.617188 12.421875 -0.972656 11.515625 -0.484375 C 10.609375 0.00390625 9.550781 0.25 8.34375 0.25 C 6.957031 0.25 5.691406 -0.109375 4.546875 -0.828125 C 3.410156 -1.554688 2.507812 -2.585938 1.84375 -3.921875 C 1.1875 -5.265625 0.859375 -6.8125 0.859375 -8.5625 Z M 13.640625 -8.53125 C 13.640625 -9.832031 13.273438 -10.859375 12.546875 -11.609375 C 11.828125 -12.367188 10.945312 -12.75 9.90625 -12.75 C 8.863281 -12.75 7.976562 -12.375 7.25 -11.625 C 6.53125 -10.882812 6.171875 -9.863281 6.171875 -8.5625 C 6.171875 -7.257812 6.53125 -6.222656 7.25 -5.453125 C 7.976562 -4.691406 8.863281 -4.3125 9.90625 -4.3125 C 10.945312 -4.3125 11.828125 -4.6875 12.546875 -5.4375 C 13.273438 -6.195312 13.640625 -7.226562 13.640625 -8.53125 Z M 13.640625 -8.53125 "/></g></g></g><g fill="#000000" fill-opacity="1"><g transform="translate(153.164562, 272.860632)"><g><path d="M 12.390625 -17.25 C 14.335938 -17.25 15.898438 -16.597656 17.078125 -15.296875 C 18.265625 -14.003906 18.859375 -12.226562 18.859375 -9.96875 L 18.859375 0 L 13.671875 0 L 13.671875 -9.265625 C 13.671875 -10.410156 13.375 -11.296875 12.78125 -11.921875 C 12.1875 -12.554688 11.390625 -12.875 10.390625 -12.875 C 9.390625 -12.875 8.59375 -12.554688 8 -11.921875 C 7.414062 -11.296875 7.125 -10.410156 7.125 -9.265625 L 7.125 0 L 1.890625 0 L 1.890625 -22.625 L 7.125 -22.625 L 7.125 -14.765625 C 7.65625 -15.523438 8.378906 -16.128906 9.296875 -16.578125 C 10.210938 -17.023438 11.242188 -17.25 12.390625 -17.25 Z M 12.390625 -17.25 "/></g></g></g><g fill="#000000" fill-opacity="1"><g transform="translate(173.766948, 272.860632)"><g><path d="M 7.125 -14.21875 C 7.738281 -15.15625 8.503906 -15.894531 9.421875 -16.4375 C 10.335938 -16.976562 11.351562 -17.25 12.46875 -17.25 L 12.46875 -11.71875 L 11.03125 -11.71875 C 9.726562 -11.71875 8.75 -11.4375 8.09375 -10.875 C 7.445312 -10.3125 7.125 -9.328125 7.125 -7.921875 L 7.125 0 L 1.890625 0 L 1.890625 -17.0625 L 7.125 -17.0625 Z M 7.125 -14.21875 "/></g></g></g><g fill="#000000" fill-opacity="1"><g transform="translate(186.849765, 272.860632)"><g><path d="M 0.859375 -8.5625 C 0.859375 -10.3125 1.1875 -11.847656 1.84375 -13.171875 C 2.507812 -14.503906 3.410156 -15.523438 4.546875 -16.234375 C 5.691406 -16.953125 6.96875 -17.3125 8.375 -17.3125 C 9.582031 -17.3125 10.640625 -17.066406 11.546875 -16.578125 C 12.453125 -16.085938 13.148438 -15.441406 13.640625 -14.640625 L 13.640625 -17.0625 L 18.859375 -17.0625 L 18.859375 0 L 13.640625 0 L 13.640625 -2.421875 C 13.128906 -1.617188 12.421875 -0.972656 11.515625 -0.484375 C 10.609375 0.00390625 9.550781 0.25 8.34375 0.25 C 6.957031 0.25 5.691406 -0.109375 4.546875 -0.828125 C 3.410156 -1.554688 2.507812 -2.585938 1.84375 -3.921875 C 1.1875 -5.265625 0.859375 -6.8125 0.859375 -8.5625 Z M 13.640625 -8.53125 C 13.640625 -9.832031 13.273438 -10.859375 12.546875 -11.609375 C 11.828125 -12.367188 10.945312 -12.75 9.90625 -12.75 C 8.863281 -12.75 7.976562 -12.375 7.25 -11.625 C 6.53125 -10.882812 6.171875 -9.863281 6.171875 -8.5625 C 6.171875 -7.257812 6.53125 -6.222656 7.25 -5.453125 C 7.976562 -4.691406 8.863281 -4.3125 9.90625 -4.3125 C 10.945312 -4.3125 11.828125 -4.6875 12.546875 -5.4375 C 13.273438 -6.195312 13.640625 -7.226562 13.640625 -8.53125 Z M 13.640625 -8.53125 "/></g></g></g><g fill="#000000" fill-opacity="1"><g transform="translate(207.604992, 272.860632)"><g><path d="M 4.53125 -18.84375 C 3.613281 -18.84375 2.863281 -19.109375 2.28125 -19.640625 C 1.695312 -20.179688 1.40625 -20.851562 1.40625 -21.65625 C 1.40625 -22.46875 1.695312 -23.144531 2.28125 -23.6875 C 2.863281 -24.226562 3.613281 -24.5 4.53125 -24.5 C 5.425781 -24.5 6.160156 -24.226562 6.734375 -23.6875 C 7.316406 -23.144531 7.609375 -22.46875 7.609375 -21.65625 C 7.609375 -20.851562 7.316406 -20.179688 6.734375 -19.640625 C 6.160156 -19.109375 5.425781 -18.84375 4.53125 -18.84375 Z M 7.125 -17.0625 L 7.125 0 L 1.890625 0 L 1.890625 -17.0625 Z M 7.125 -17.0625 "/></g></g></g><g fill="#000000" fill-opacity="1"><g transform="translate(216.62236, 272.860632)"><g><path d="M 12.296875 -17.25 C 14.296875 -17.25 15.890625 -16.597656 17.078125 -15.296875 C 18.265625 -14.003906 18.859375 -12.226562 18.859375 -9.96875 L 18.859375 0 L 13.671875 0 L 13.671875 -9.265625 C 13.671875 -10.410156 13.375 -11.296875 12.78125 -11.921875 C 12.1875 -12.554688 11.390625 -12.875 10.390625 -12.875 C 9.390625 -12.875 8.59375 -12.554688 8 -11.921875 C 7.414062 -11.296875 7.125 -10.410156 7.125 -9.265625 L 7.125 0 L 1.890625 0 L 1.890625 -17.0625 L 7.125 -17.0625 L 7.125 -14.796875 C 7.65625 -15.554688 8.367188 -16.15625 9.265625 -16.59375 C 10.160156 -17.03125 11.171875 -17.25 12.296875 -17.25 Z M 12.296875 -17.25 "/></g></g></g></svg>