<svg xmlns="http://www.w3.org/2000/svg" xmlns:xlink="http://www.w3.org/1999/xlink" width="500" zoomAndPan="magnify" viewBox="0 0 375 374.999991" height="500" preserveAspectRatio="xMidYMid meet" version="1.0"><defs><g/></defs><path fill="#ffffff" d="M 62.519531 209.433594 C 52.074219 204.960938 34.03125 206.195312 24.519531 212.363281 C 21.058594 208.097656 22.246094 197.820312 26.226562 196.636719 C 23.488281 186.207031 28.96875 163.90625 15.679688 163.1875 C 10.355469 168.839844 7.046875 156.300781 15.527344 159.332031 C 33.050781 161.011719 26.941406 182.691406 31.035156 195.558594 C 45.71875 192.375 70.324219 199.363281 65.308594 203.265625 C 50.730469 199.363281 32.742188 194.683594 26.226562 208.046875 C 33.464844 200.851562 60.246094 202.136719 62.519531 209.433594 Z M 62.519531 209.433594 " fill-opacity="1" fill-rule="nonzero"/><path fill="#ffffff" d="M 61.433594 196.175781 C 73.066406 186.464844 99.300781 158.160156 29.949219 171.972656 C 80.972656 169.199219 74.304688 173.515625 61.433594 196.175781 Z M 61.433594 196.175781 " fill-opacity="1" fill-rule="nonzero"/><path fill="#ffffff" d="M 70.117188 180.761719 C 58.746094 177.007812 45.042969 175.570312 32.585938 177.984375 C 44.320312 177.164062 57.917969 180.042969 68.878906 183.691406 Z M 70.117188 180.761719 " fill-opacity="1" fill-rule="nonzero"/><path fill="#ffffff" d="M 66.394531 187.851562 L 64.691406 191.089844 C 56.988281 186.15625 46.335938 183.996094 35.378906 184.613281 C 43.492188 180.453125 53.78125 181.992188 66.394531 187.851562 Z M 66.394531 187.851562 " fill-opacity="1" fill-rule="nonzero"/><path fill="#ffffff" d="M 69.496094 172.898438 L 65 170.894531 C 58.488281 178.707031 55.074219 186.824219 52.902344 195.25 C 57.039062 187.339844 61.640625 180.195312 69.496094 172.898438 Z M 69.496094 172.898438 " fill-opacity="1" fill-rule="nonzero"/><path fill="#ffffff" d="M 60.191406 170.125 L 56.316406 169.96875 C 50.421875 177.0625 47.941406 184.304688 47.941406 191.707031 C 50.164062 184.511719 53.625 177.316406 60.191406 170.125 Z M 60.191406 170.125 " fill-opacity="1" fill-rule="nonzero"/><path fill="#ffffff" d="M 49.335938 170.277344 L 45.613281 170.433594 C 43.234375 176.546875 41.476562 182.351562 41.738281 188.777344 C 42.5625 182.300781 45.5625 176.597656 49.335938 170.277344 Z M 49.335938 170.277344 " fill-opacity="1" fill-rule="nonzero"/><path stroke-linecap="round" transform="matrix(-0.0548335, 0, 0, 0.0545018, 64.689828, 178.746463)" fill-opacity="1" fill="#ffffff" fill-rule="nonzero" stroke-linejoin="round" d="M 102.340782 514.669584 C 85.314808 514.8846 69.428648 519.758293 56.676977 529.649024 C 19.704255 558.389482 23.123697 618.880618 64.441961 664.679003 C 105.688987 710.549059 169.304865 724.45342 206.348826 695.712963 C 243.392786 666.900834 239.902105 606.409697 198.583842 560.53964 C 171.513255 530.509088 134.825486 514.16788 102.340782 514.669584 Z M 131.477282 572.078826 C 145.653721 571.863811 161.753596 579.532711 173.579168 593.723759 C 191.673718 615.368692 193.240963 643.894134 176.998611 657.440135 C 160.827497 671.057808 132.973288 664.463987 114.878738 642.890726 C 96.784188 621.245793 95.288182 592.64868 111.459296 579.102679 C 117.087128 574.444001 123.997252 572.150498 131.477282 572.078826 Z M 131.477282 572.078826 " stroke="#fffdff" stroke-width="9.127" stroke-opacity="1" stroke-miterlimit="4"/><path stroke-linecap="round" transform="matrix(-0.0548335, 0, 0, 0.0545018, 64.689828, 178.746463)" fill-opacity="1" fill="#ffffff" fill-rule="nonzero" stroke-linejoin="round" d="M 607.207223 514.669584 C 590.181248 514.8846 574.295088 519.758293 561.614656 529.649024 C 524.570695 558.389482 527.990138 618.880618 569.308401 664.679003 C 610.626665 710.549059 674.171305 724.45342 711.215266 695.712963 C 748.259227 666.900834 744.768546 606.409697 703.52152 560.53964 C 676.379695 530.509088 639.691927 514.16788 607.207223 514.669584 Z M 636.343722 572.078826 C 650.5914 571.863811 666.620036 579.532711 678.516847 593.723759 C 696.540159 615.368692 698.107403 643.894134 681.865051 657.440135 C 665.693937 671.057808 637.839729 664.463987 619.745179 642.890726 C 601.650629 621.245793 600.154622 592.64868 616.396974 579.102679 C 621.953569 574.444001 628.863692 572.150498 636.343722 572.078826 Z M 636.343722 572.078826 " stroke="#fffdff" stroke-width="9.127" stroke-opacity="1" stroke-miterlimit="4"/><g fill="#ffffff" fill-opacity="1"><g transform="translate(78.440983, 207.024332)"><g><path d="M 21.46875 -26.46875 L 21.46875 -21.421875 L 8.625 -21.421875 L 8.625 -15.78125 L 19.984375 -15.78125 L 19.984375 -10.75 L 8.625 -10.75 L 8.625 -5.03125 L 21.96875 -5.03125 L 21.96875 0 L 3.421875 0 L 3.421875 -26.46875 Z M 21.46875 -26.46875 "/></g></g></g><g fill="#ffffff" fill-opacity="1"><g transform="translate(102.385706, 207.024332)"><g><path d="M 23.265625 -2.1875 C 22.585938 -1.632812 21.519531 -1.082031 20.0625 -0.53125 C 18.601562 0.0078125 17.007812 0.28125 15.28125 0.28125 C 12.519531 0.28125 10.117188 -0.316406 8.078125 -1.515625 C 6.046875 -2.710938 4.488281 -4.320312 3.40625 -6.34375 C 2.332031 -8.375 1.796875 -10.597656 1.796875 -13.015625 C 1.796875 -15.671875 2.332031 -18.039062 3.40625 -20.125 C 4.488281 -22.21875 6 -23.84375 7.9375 -25 C 9.882812 -26.164062 12.128906 -26.75 14.671875 -26.75 C 16.273438 -26.75 17.757812 -26.53125 19.125 -26.09375 C 20.488281 -25.664062 21.6875 -25.128906 22.71875 -24.484375 L 20.671875 -19.5625 C 18.773438 -21 16.832031 -21.71875 14.84375 -21.71875 C 13.5 -21.71875 12.238281 -21.34375 11.0625 -20.59375 C 9.894531 -19.851562 8.960938 -18.84375 8.265625 -17.5625 C 7.566406 -16.28125 7.21875 -14.859375 7.21875 -13.296875 C 7.21875 -11.597656 7.539062 -10.109375 8.1875 -8.828125 C 8.84375 -7.546875 9.769531 -6.546875 10.96875 -5.828125 C 12.164062 -5.109375 13.566406 -4.75 15.171875 -4.75 C 16.460938 -4.75 17.625 -4.957031 18.65625 -5.375 C 19.6875 -5.789062 20.503906 -6.285156 21.109375 -6.859375 Z M 23.265625 -2.1875 "/></g></g></g><g fill="#ffffff" fill-opacity="1"><g transform="translate(127.444981, 207.024332)"><g><path d="M 1.796875 -13.1875 C 1.796875 -15.59375 2.398438 -17.835938 3.609375 -19.921875 C 4.816406 -22.003906 6.457031 -23.660156 8.53125 -24.890625 C 10.613281 -26.128906 12.863281 -26.75 15.28125 -26.75 C 17.695312 -26.75 19.941406 -26.128906 22.015625 -24.890625 C 24.085938 -23.660156 25.738281 -22.003906 26.96875 -19.921875 C 28.207031 -17.835938 28.828125 -15.59375 28.828125 -13.1875 C 28.828125 -10.75 28.207031 -8.5 26.96875 -6.4375 C 25.738281 -4.375 24.085938 -2.738281 22.015625 -1.53125 C 19.941406 -0.320312 17.695312 0.28125 15.28125 0.28125 C 12.832031 0.28125 10.578125 -0.320312 8.515625 -1.53125 C 6.453125 -2.738281 4.816406 -4.375 3.609375 -6.4375 C 2.398438 -8.5 1.796875 -10.75 1.796875 -13.1875 Z M 7.1875 -13.1875 C 7.1875 -11.65625 7.550781 -10.242188 8.28125 -8.953125 C 9.019531 -7.660156 10.015625 -6.632812 11.265625 -5.875 C 12.523438 -5.125 13.921875 -4.75 15.453125 -4.75 C 16.941406 -4.75 18.296875 -5.125 19.515625 -5.875 C 20.742188 -6.632812 21.703125 -7.65625 22.390625 -8.9375 C 23.085938 -10.21875 23.4375 -11.632812 23.4375 -13.1875 C 23.4375 -14.769531 23.078125 -16.207031 22.359375 -17.5 C 21.640625 -18.800781 20.660156 -19.828125 19.421875 -20.578125 C 18.191406 -21.335938 16.820312 -21.71875 15.3125 -21.71875 C 13.800781 -21.71875 12.425781 -21.335938 11.1875 -20.578125 C 9.957031 -19.828125 8.984375 -18.800781 8.265625 -17.5 C 7.546875 -16.207031 7.1875 -14.769531 7.1875 -13.1875 Z M 7.1875 -13.1875 "/></g></g></g><g fill="#ffffff" fill-opacity="1"><g transform="translate(158.076979, 207.024332)"><g><path d="M 30.671875 -27.546875 L 30.671875 0 L 25.453125 0 L 25.453125 -12.625 L 16.828125 -0.359375 L 16.75 -0.359375 L 8.453125 -11.828125 L 8.453125 0 L 3.421875 0 L 3.421875 -27.546875 L 3.453125 -27.546875 L 16.859375 -8.515625 L 30.59375 -27.546875 Z M 30.671875 -27.546875 "/></g></g></g><g fill="#ffffff" fill-opacity="1"><g transform="translate(192.160469, 207.024332)"><g><path d="M 11.4375 -26.46875 C 14.664062 -26.46875 17.164062 -25.664062 18.9375 -24.0625 C 20.71875 -22.46875 21.609375 -20.296875 21.609375 -17.546875 C 21.609375 -15.960938 21.300781 -14.476562 20.6875 -13.09375 C 20.082031 -11.71875 19.085938 -10.585938 17.703125 -9.703125 C 16.328125 -8.816406 14.550781 -8.375 12.375 -8.375 L 8.625 -8.375 L 8.625 0 L 3.421875 0 L 3.421875 -26.46875 Z M 12.328125 -13.453125 C 13.316406 -13.453125 14.109375 -13.671875 14.703125 -14.109375 C 15.304688 -14.554688 15.738281 -15.078125 16 -15.671875 C 16.257812 -16.273438 16.390625 -16.851562 16.390625 -17.40625 C 16.390625 -18.332031 16.113281 -19.234375 15.5625 -20.109375 C 15.007812 -20.984375 13.945312 -21.421875 12.375 -21.421875 L 8.625 -21.421875 L 8.625 -13.453125 Z M 12.328125 -13.453125 "/></g></g></g><g fill="#ffffff" fill-opacity="1"><g transform="translate(215.02661, 207.024332)"><g><path d="M 16.5 -5.171875 L 7.734375 -5.171875 L 5.578125 0 L 0.4375 0 L 12.375 -27.5 L 12.65625 -27.5 L 24.59375 0 L 18.546875 0 Z M 14.78125 -9.5625 L 12.21875 -16 L 9.5625 -9.5625 Z M 14.78125 -9.5625 "/></g></g></g><g fill="#ffffff" fill-opacity="1"><g transform="translate(240.049928, 207.024332)"><g><path d="M 17.6875 0 L 12.109375 -8.40625 L 8.625 -8.40625 L 8.625 0 L 3.421875 0 L 3.421875 -26.46875 L 11.4375 -26.46875 C 14.71875 -26.46875 17.257812 -25.664062 19.0625 -24.0625 C 20.875 -22.46875 21.78125 -20.296875 21.78125 -17.546875 C 21.78125 -15.910156 21.4375 -14.378906 20.75 -12.953125 C 20.070312 -11.535156 19.023438 -10.414062 17.609375 -9.59375 L 23.765625 0 Z M 8.625 -13.453125 L 12.328125 -13.453125 C 13.742188 -13.453125 14.773438 -13.863281 15.421875 -14.6875 C 16.066406 -15.507812 16.390625 -16.398438 16.390625 -17.359375 C 16.390625 -18.316406 16.113281 -19.234375 15.5625 -20.109375 C 15.007812 -20.984375 13.945312 -21.421875 12.375 -21.421875 L 8.625 -21.421875 Z M 8.625 -13.453125 "/></g></g></g><g fill="#ffffff" fill-opacity="1"><g transform="translate(264.713718, 207.024332)"><g><path d="M 19.453125 -26.46875 L 19.453125 -21.421875 L 13.015625 -21.421875 L 13.015625 0 L 7.796875 0 L 7.796875 -21.421875 L 1.625 -21.421875 L 1.625 -26.46875 Z M 19.453125 -26.46875 "/></g></g></g><g fill="#ffffff" fill-opacity="1"><g transform="translate(285.782187, 207.024332)"><g><path d="M 27.25 -26.46875 L 27.25 1.078125 L 27.109375 1.078125 L 8.59375 -15.640625 L 8.703125 0 L 3.421875 0 L 3.421875 -27.5 L 3.625 -27.5 L 22.109375 -10.53125 L 22 -26.46875 Z M 27.25 -26.46875 "/></g></g></g><g fill="#ffffff" fill-opacity="1"><g transform="translate(316.45013, 207.024332)"><g><path d="M 21.46875 -26.46875 L 21.46875 -21.421875 L 8.625 -21.421875 L 8.625 -15.78125 L 19.984375 -15.78125 L 19.984375 -10.75 L 8.625 -10.75 L 8.625 -5.03125 L 21.96875 -5.03125 L 21.96875 0 L 3.421875 0 L 3.421875 -26.46875 Z M 21.46875 -26.46875 "/></g></g></g><g fill="#ffffff" fill-opacity="1"><g transform="translate(340.394854, 207.024332)"><g><path d="M 17.6875 0 L 12.109375 -8.40625 L 8.625 -8.40625 L 8.625 0 L 3.421875 0 L 3.421875 -26.46875 L 11.4375 -26.46875 C 14.71875 -26.46875 17.257812 -25.664062 19.0625 -24.0625 C 20.875 -22.46875 21.78125 -20.296875 21.78125 -17.546875 C 21.78125 -15.910156 21.4375 -14.378906 20.75 -12.953125 C 20.070312 -11.535156 19.023438 -10.414062 17.609375 -9.59375 L 23.765625 0 Z M 8.625 -13.453125 L 12.328125 -13.453125 C 13.742188 -13.453125 14.773438 -13.863281 15.421875 -14.6875 C 16.066406 -15.507812 16.390625 -16.398438 16.390625 -17.359375 C 16.390625 -18.316406 16.113281 -19.234375 15.5625 -20.109375 C 15.007812 -20.984375 13.945312 -21.421875 12.375 -21.421875 L 8.625 -21.421875 Z M 8.625 -13.453125 "/></g></g></g></svg>