<svg xmlns="http://www.w3.org/2000/svg" xmlns:xlink="http://www.w3.org/1999/xlink" width="2000" zoomAndPan="magnify" viewBox="0 0 1500 599.999999" height="800" preserveAspectRatio="xMidYMid meet" version="1.0"><defs><g/></defs><rect x="-150" width="1800" fill="#ffffff" y="-60" height="719.999999" fill-opacity="1"/><rect x="-150" width="1800" fill="#ffffff" y="-60" height="719.999999" fill-opacity="1"/><rect x="-150" width="1800" fill="#ffffff" y="-60" height="719.999999" fill-opacity="1"/><rect x="-150" width="1800" fill="#ffffff" y="-60" height="719.999999" fill-opacity="1"/><g fill="#0467ff" fill-opacity="1"><g transform="translate(319.23469, 359.688477)"><g><path d="M 82.5 -101.703125 L 82.5 -82.359375 L 33.171875 -82.359375 L 33.171875 -60.671875 L 76.828125 -60.671875 L 76.828125 -41.3125 L 33.171875 -41.3125 L 33.171875 -19.34375 L 84.4375 -19.34375 L 84.4375 0 L 13.125 0 L 13.125 -101.703125 Z M 82.5 -101.703125 "/></g></g></g><g fill="#0467ff" fill-opacity="1"><g transform="translate(411.259764, 359.688477)"><g><path d="M 89.40625 -8.421875 C 86.820312 -6.304688 82.71875 -4.1875 77.09375 -2.0625 C 71.476562 0.0507812 65.359375 1.109375 58.734375 1.109375 C 48.140625 1.109375 38.925781 -1.191406 31.09375 -5.796875 C 23.257812 -10.410156 17.269531 -16.609375 13.125 -24.390625 C 8.976562 -32.171875 6.90625 -40.71875 6.90625 -50.03125 C 6.90625 -60.25 8.976562 -69.363281 13.125 -77.375 C 17.269531 -85.394531 23.070312 -91.640625 30.53125 -96.109375 C 38 -100.578125 46.613281 -102.8125 56.375 -102.8125 C 62.550781 -102.8125 68.265625 -101.984375 73.515625 -100.328125 C 78.765625 -98.671875 83.367188 -96.597656 87.328125 -94.109375 L 79.453125 -75.171875 C 72.179688 -80.703125 64.722656 -83.46875 57.078125 -83.46875 C 51.910156 -83.46875 47.070312 -82.035156 42.5625 -79.171875 C 38.050781 -76.316406 34.457031 -72.425781 31.78125 -67.5 C 29.113281 -62.570312 27.78125 -57.113281 27.78125 -51.125 C 27.78125 -44.582031 29.019531 -38.847656 31.5 -33.921875 C 33.988281 -28.992188 37.535156 -25.144531 42.140625 -22.375 C 46.753906 -19.613281 52.144531 -18.234375 58.3125 -18.234375 C 63.289062 -18.234375 67.757812 -19.039062 71.71875 -20.65625 C 75.675781 -22.269531 78.804688 -24.179688 81.109375 -26.390625 Z M 89.40625 -8.421875 "/></g></g></g><g fill="#0467ff" fill-opacity="1"><g transform="translate(507.568281, 359.688477)"><g><path d="M 6.90625 -50.71875 C 6.90625 -59.925781 9.226562 -68.535156 13.875 -76.546875 C 18.53125 -84.566406 24.84375 -90.945312 32.8125 -95.6875 C 40.78125 -100.4375 49.421875 -102.8125 58.734375 -102.8125 C 68.035156 -102.8125 76.671875 -100.4375 84.640625 -95.6875 C 92.609375 -90.945312 98.960938 -84.566406 103.703125 -76.546875 C 108.453125 -68.535156 110.828125 -59.925781 110.828125 -50.71875 C 110.828125 -41.320312 108.453125 -32.660156 103.703125 -24.734375 C 98.960938 -16.804688 92.609375 -10.515625 84.640625 -5.859375 C 76.671875 -1.210938 68.035156 1.109375 58.734375 1.109375 C 49.335938 1.109375 40.675781 -1.210938 32.75 -5.859375 C 24.820312 -10.515625 18.53125 -16.804688 13.875 -24.734375 C 9.226562 -32.660156 6.90625 -41.320312 6.90625 -50.71875 Z M 27.640625 -50.71875 C 27.640625 -44.820312 29.039062 -39.382812 31.84375 -34.40625 C 34.65625 -29.4375 38.476562 -25.5 43.3125 -22.59375 C 48.15625 -19.6875 53.523438 -18.234375 59.421875 -18.234375 C 65.128906 -18.234375 70.332031 -19.6875 75.03125 -22.59375 C 79.726562 -25.5 83.410156 -29.414062 86.078125 -34.34375 C 88.753906 -39.269531 90.09375 -44.726562 90.09375 -50.71875 C 90.09375 -56.789062 88.710938 -62.316406 85.953125 -67.296875 C 83.191406 -72.273438 79.4375 -76.210938 74.6875 -79.109375 C 69.945312 -82.015625 64.675781 -83.46875 58.875 -83.46875 C 53.0625 -83.46875 47.78125 -82.015625 43.03125 -79.109375 C 38.289062 -76.210938 34.539062 -72.273438 31.78125 -67.296875 C 29.019531 -62.316406 27.640625 -56.789062 27.640625 -50.71875 Z M 27.640625 -50.71875 "/></g></g></g><g fill="#0467ff" fill-opacity="1"><g transform="translate(625.294049, 359.688477)"><g><path d="M 117.875 -105.84375 L 117.875 0 L 97.84375 0 L 97.84375 -48.5 L 64.671875 -1.375 L 64.390625 -1.375 L 32.46875 -45.46875 L 32.46875 0 L 13.125 0 L 13.125 -105.84375 L 13.265625 -105.84375 L 64.8125 -32.75 L 117.59375 -105.84375 Z M 117.875 -105.84375 "/></g></g></g><g fill="#0467ff" fill-opacity="1"><g transform="translate(756.284671, 359.688477)"><g><path d="M 43.9375 -101.703125 C 56.375 -101.703125 66 -98.640625 72.8125 -92.515625 C 79.632812 -86.390625 83.046875 -78.03125 83.046875 -67.4375 C 83.046875 -61.351562 81.867188 -55.660156 79.515625 -50.359375 C 77.171875 -45.066406 73.347656 -40.71875 68.046875 -37.3125 C 62.753906 -33.90625 55.914062 -32.203125 47.53125 -32.203125 L 33.171875 -32.203125 L 33.171875 0 L 13.125 0 L 13.125 -101.703125 Z M 47.390625 -51.6875 C 51.171875 -51.6875 54.210938 -52.535156 56.515625 -54.234375 C 58.816406 -55.941406 60.472656 -57.945312 61.484375 -60.25 C 62.503906 -62.550781 63.015625 -64.757812 63.015625 -66.875 C 63.015625 -70.46875 61.953125 -73.945312 59.828125 -77.3125 C 57.710938 -80.675781 53.613281 -82.359375 47.53125 -82.359375 L 33.171875 -82.359375 L 33.171875 -51.6875 Z M 47.390625 -51.6875 "/></g></g></g><g fill="#0467ff" fill-opacity="1"><g transform="translate(844.164444, 359.688477)"><g><path d="M 63.421875 -19.90625 L 29.703125 -19.90625 L 21.421875 0 L 1.65625 0 L 47.53125 -105.71875 L 48.640625 -105.71875 L 94.515625 0 L 71.3125 0 Z M 56.796875 -36.765625 L 46.984375 -61.5 L 36.765625 -36.765625 Z M 56.796875 -36.765625 "/></g></g></g><g fill="#0467ff" fill-opacity="1"><g transform="translate(940.334773, 359.688477)"><g><path d="M 67.984375 0 L 46.5625 -32.328125 L 33.171875 -32.328125 L 33.171875 0 L 13.125 0 L 13.125 -101.703125 L 43.9375 -101.703125 C 56.5625 -101.703125 66.347656 -98.640625 73.296875 -92.515625 C 80.253906 -86.390625 83.734375 -78.03125 83.734375 -67.4375 C 83.734375 -61.164062 82.421875 -55.289062 79.796875 -49.8125 C 77.171875 -44.332031 73.144531 -40.023438 67.71875 -36.890625 L 91.34375 0 Z M 33.171875 -51.6875 L 47.390625 -51.6875 C 52.828125 -51.6875 56.789062 -53.273438 59.28125 -56.453125 C 61.769531 -59.628906 63.015625 -63.0625 63.015625 -66.75 C 63.015625 -70.425781 61.953125 -73.945312 59.828125 -77.3125 C 57.710938 -80.675781 53.613281 -82.359375 47.53125 -82.359375 L 33.171875 -82.359375 Z M 33.171875 -51.6875 "/></g></g></g><g fill="#0467ff" fill-opacity="1"><g transform="translate(1035.123344, 359.688477)"><g><path d="M 74.765625 -101.703125 L 74.765625 -82.359375 L 50.03125 -82.359375 L 50.03125 0 L 29.984375 0 L 29.984375 -82.359375 L 6.21875 -82.359375 L 6.21875 -101.703125 Z M 74.765625 -101.703125 "/></g></g></g><g fill="#0467ff" fill-opacity="1"><g transform="translate(1116.094364, 359.688477)"><g><path d="M 104.75 -101.703125 L 104.75 4.140625 L 104.1875 4.140625 L 33.03125 -60.109375 L 33.4375 0 L 13.125 0 L 13.125 -105.71875 L 13.953125 -105.71875 L 84.984375 -40.484375 L 84.578125 -101.703125 Z M 104.75 -101.703125 "/></g></g></g><g fill="#0467ff" fill-opacity="1"><g transform="translate(1233.958343, 359.688477)"><g><path d="M 82.5 -101.703125 L 82.5 -82.359375 L 33.171875 -82.359375 L 33.171875 -60.671875 L 76.828125 -60.671875 L 76.828125 -41.3125 L 33.171875 -41.3125 L 33.171875 -19.34375 L 84.4375 -19.34375 L 84.4375 0 L 13.125 0 L 13.125 -101.703125 Z M 82.5 -101.703125 "/></g></g></g><g fill="#0467ff" fill-opacity="1"><g transform="translate(1325.983393, 359.688477)"><g><path d="M 67.984375 0 L 46.5625 -32.328125 L 33.171875 -32.328125 L 33.171875 0 L 13.125 0 L 13.125 -101.703125 L 43.9375 -101.703125 C 56.5625 -101.703125 66.347656 -98.640625 73.296875 -92.515625 C 80.253906 -86.390625 83.734375 -78.03125 83.734375 -67.4375 C 83.734375 -61.164062 82.421875 -55.289062 79.796875 -49.8125 C 77.171875 -44.332031 73.144531 -40.023438 67.71875 -36.890625 L 91.34375 0 Z M 33.171875 -51.6875 L 47.390625 -51.6875 C 52.828125 -51.6875 56.789062 -53.273438 59.28125 -56.453125 C 61.769531 -59.628906 63.015625 -63.0625 63.015625 -66.75 C 63.015625 -70.425781 61.953125 -73.945312 59.828125 -77.3125 C 57.710938 -80.675781 53.613281 -82.359375 47.53125 -82.359375 L 33.171875 -82.359375 Z M 33.171875 -51.6875 "/></g></g></g><path fill="#0467ff" d="M 260.527344 375.675781 C 223.507812 359.730469 159.554688 364.128906 125.835938 386.117188 C 113.558594 370.910156 117.773438 334.261719 131.882812 330.046875 C 122.171875 292.847656 141.597656 213.320312 94.5 210.753906 C 75.625 230.910156 63.898438 186.199219 93.949219 197.011719 C 156.066406 202.992188 134.410156 280.308594 148.925781 326.199219 C 200.96875 314.835938 288.199219 339.757812 270.421875 353.683594 C 218.746094 339.757812 154.972656 323.082031 131.882812 370.726562 C 157.539062 345.074219 252.464844 349.652344 260.527344 375.671875 Z M 260.527344 375.675781 " fill-opacity="1" fill-rule="nonzero"/><path fill="#0467ff" d="M 256.679688 328.398438 C 297.910156 293.765625 390.90625 192.832031 145.078125 242.089844 C 325.945312 232.195312 302.308594 247.589844 256.679688 328.398438 Z M 256.679688 328.398438 " fill-opacity="1" fill-rule="nonzero"/><path fill="#0467ff" d="M 287.464844 273.425781 C 247.148438 260.046875 198.585938 254.917969 154.421875 263.53125 C 196.023438 260.597656 244.21875 270.859375 283.066406 283.871094 Z M 287.464844 273.425781 " fill-opacity="1" fill-rule="nonzero"/><path fill="#0467ff" d="M 274.269531 298.710938 L 268.222656 310.257812 C 240.917969 292.664062 203.167969 284.96875 164.320312 287.167969 C 193.089844 272.324219 229.558594 277.824219 274.273438 298.710938 Z M 274.269531 298.710938 " fill-opacity="1" fill-rule="nonzero"/><path fill="#0467ff" d="M 285.265625 245.390625 L 269.324219 238.242188 C 246.234375 266.097656 234.136719 295.046875 226.441406 325.101562 C 241.101562 296.882812 257.410156 271.410156 285.265625 245.390625 Z M 285.265625 245.390625 " fill-opacity="1" fill-rule="nonzero"/><path fill="#0467ff" d="M 252.28125 235.496094 L 238.535156 234.945312 C 217.644531 260.234375 208.847656 286.070312 208.847656 312.457031 C 216.726562 286.804688 229.007812 261.148438 252.28125 235.496094 Z M 252.28125 235.496094 " fill-opacity="1" fill-rule="nonzero"/><path fill="#0467ff" d="M 213.796875 236.042969 L 200.601562 236.59375 C 192.171875 258.398438 185.941406 279.105469 186.859375 302.011719 C 189.792969 278.921875 200.421875 258.582031 213.796875 236.042969 Z M 213.796875 236.042969 " fill-opacity="1" fill-rule="nonzero"/><path stroke-linecap="round" transform="matrix(-0.194369, 0, 0, 0.194358, 268.2229, 266.24248)" fill-opacity="1" fill="#0467ff" fill-rule="nonzero" stroke-linejoin="round" d="M 102.335507 514.652521 C 85.313293 514.893699 69.436612 519.737359 56.695073 529.625663 C 19.676279 558.366056 23.132974 618.881668 64.432443 664.705512 C 105.711814 710.529356 169.298928 724.417196 206.337819 695.676803 C 243.376709 666.936409 239.899917 606.380601 198.620546 560.556757 C 171.509605 530.489884 134.832461 514.190262 102.335507 514.652521 Z M 131.456154 572.052915 C 145.684876 571.831835 161.742431 579.549535 173.619797 593.738848 C 191.687058 615.364487 193.234532 643.903898 177.016201 657.470168 C 160.797869 671.016339 132.943337 664.484432 114.855979 642.878891 C 96.788717 621.253253 95.26134 592.673645 111.479672 579.127473 C 117.066656 574.464696 124.000143 572.173504 131.456154 572.052915 Z M 131.456154 572.052915 " stroke="#fffdff" stroke-width="9.127" stroke-opacity="1" stroke-miterlimit="4"/><path stroke-linecap="round" transform="matrix(-0.194369, 0, 0, 0.194358, 268.2229, 266.24248)" fill-opacity="1" fill="#0467ff" fill-rule="nonzero" stroke-linejoin="round" d="M 607.213973 514.652521 C 590.191759 514.893699 574.315078 519.737359 561.593636 529.625663 C 524.554745 558.366056 528.01144 618.881668 569.310909 664.705512 C 610.59028 710.529356 674.177394 724.417196 711.216285 695.676803 C 748.255175 666.936409 744.79848 606.380601 703.499012 560.556757 C 676.388071 530.489884 639.710928 514.190262 607.213973 514.652521 Z M 636.334621 572.052915 C 650.563343 571.831835 666.620897 579.549535 678.498263 593.738848 C 696.565524 615.364487 698.112998 643.903898 681.894667 657.470168 C 665.676335 671.016339 637.821803 664.484432 619.734445 642.878891 C 601.667184 621.253253 600.159904 592.673645 616.358138 579.127473 C 621.945122 574.464696 628.878609 572.173504 636.334621 572.052915 Z M 636.334621 572.052915 " stroke="#fffdff" stroke-width="9.127" stroke-opacity="1" stroke-miterlimit="4"/></svg>