<svg xmlns="http://www.w3.org/2000/svg" xmlns:xlink="http://www.w3.org/1999/xlink" width="500" zoomAndPan="magnify" viewBox="0 0 375 374.999991" height="500" preserveAspectRatio="xMidYMid meet" version="1.0"><path fill="#ffffff" d="M 244.753906 245.566406 C 212.152344 231.511719 155.824219 235.386719 126.128906 254.777344 C 115.3125 241.367188 119.027344 209.054688 131.453125 205.335938 C 122.898438 172.539062 140.007812 102.417969 98.527344 100.15625 C 81.90625 117.929688 71.574219 78.507812 98.042969 88.039062 C 152.753906 93.3125 133.679688 161.484375 146.464844 201.945312 C 192.300781 191.925781 269.125 213.898438 253.46875 226.179688 C 207.957031 213.898438 151.789062 199.195312 131.453125 241.203125 C 154.046875 218.585938 237.652344 222.625 244.753906 245.566406 Z M 244.753906 245.566406 " fill-opacity="1" fill-rule="nonzero"/><path fill="#ffffff" d="M 241.363281 203.882812 C 277.679688 173.347656 359.582031 84.355469 143.074219 127.785156 C 302.371094 119.0625 281.550781 132.632812 241.363281 203.882812 Z M 241.363281 203.882812 " fill-opacity="1" fill-rule="nonzero"/><path fill="#ffffff" d="M 268.480469 155.414062 C 232.972656 143.621094 190.203125 139.09375 151.304688 146.6875 C 187.941406 144.105469 230.390625 153.152344 264.605469 164.621094 L 268.476562 155.414062 Z M 268.480469 155.414062 " fill-opacity="1" fill-rule="nonzero"/><path fill="#ffffff" d="M 256.859375 177.710938 L 251.53125 187.886719 C 227.484375 172.378906 194.234375 165.589844 160.019531 167.53125 C 185.359375 154.445312 217.476562 159.292969 256.859375 177.710938 Z M 256.859375 177.710938 " fill-opacity="1" fill-rule="nonzero"/><path fill="#ffffff" d="M 266.542969 130.695312 L 252.5 124.394531 C 232.164062 148.953125 221.511719 174.480469 214.734375 200.976562 C 227.644531 176.09375 242.007812 153.636719 266.542969 130.695312 Z M 266.542969 130.695312 " fill-opacity="1" fill-rule="nonzero"/><path fill="#ffffff" d="M 237.492188 121.96875 L 225.386719 121.484375 C 206.988281 143.78125 199.238281 166.5625 199.238281 189.828125 C 206.179688 167.210938 216.992188 144.589844 237.492188 121.96875 Z M 237.492188 121.96875 " fill-opacity="1" fill-rule="nonzero"/><path fill="#ffffff" d="M 203.597656 122.453125 L 191.976562 122.9375 C 184.554688 142.164062 179.066406 160.421875 179.871094 180.617188 C 182.453125 160.261719 191.816406 142.324219 203.597656 122.453125 Z M 203.597656 122.453125 " fill-opacity="1" fill-rule="nonzero"/><path stroke-linecap="round" transform="matrix(-0.171188, 0, 0, 0.171367, 251.532, 149.080421)" fill-opacity="1" fill="#ffffff" fill-rule="nonzero" stroke-linejoin="round" d="M 102.322741 514.644168 C 85.322924 514.89491 69.441216 519.727375 56.708468 529.620252 C 19.673968 558.364303 23.119568 618.884094 64.421136 664.701337 C 105.722704 710.541374 169.295173 724.423315 206.329673 695.679263 C 243.364173 666.935212 239.918572 606.392627 198.617004 560.55259 C 171.508572 530.486449 134.81635 514.188275 102.322741 514.644168 Z M 131.462024 572.063887 C 145.677978 571.83594 161.742234 579.563326 173.607878 593.741597 C 191.702985 615.373718 193.231827 643.889823 177.007841 657.452639 C 160.806674 671.015454 132.945229 664.496185 114.850122 642.864064 C 96.777834 621.254737 95.27181 592.670249 111.495796 579.130228 C 117.063521 574.457325 124.000359 572.17786 131.462024 572.063887 Z M 131.462024 572.063887 " stroke="#fffdff" stroke-width="9.127" stroke-opacity="1" stroke-miterlimit="4"/><path stroke-linecap="round" transform="matrix(-0.171188, 0, 0, 0.171367, 251.532, 149.080421)" fill-opacity="1" fill="#ffffff" fill-rule="nonzero" stroke-linejoin="round" d="M 607.205886 514.644168 C 590.183251 514.89491 574.324362 519.727375 561.591613 529.620252 C 524.557113 558.364303 528.002714 618.884094 569.304282 664.701337 C 610.60585 710.541374 674.178318 724.423315 711.212818 695.679263 C 748.247318 666.935212 744.778899 606.392627 703.50015 560.55259 C 676.391717 530.486449 639.699496 514.188275 607.205886 514.644168 Z M 636.345169 572.063887 C 650.561123 571.83594 666.62538 579.563326 678.491023 593.741597 C 696.563312 615.373718 698.114973 643.889823 681.890987 657.452639 C 665.689819 671.015454 637.828375 664.496185 619.733268 642.864064 C 601.66098 621.254737 600.154956 592.670249 616.356123 579.130228 C 621.946667 574.457325 628.883505 572.17786 636.345169 572.063887 Z M 636.345169 572.063887 " stroke="#fffdff" stroke-width="9.127" stroke-opacity="1" stroke-miterlimit="4"/></svg>