<svg xmlns="http://www.w3.org/2000/svg" xmlns:xlink="http://www.w3.org/1999/xlink" width="2000" zoomAndPan="magnify" viewBox="0 0 1500 374.999991" height="500" preserveAspectRatio="xMidYMid meet" version="1.0"><defs><g/></defs><g fill="#ffffff" fill-opacity="1"><g transform="translate(319.264104, 246.997227)"><g><path d="M 82.484375 -101.6875 L 82.484375 -82.34375 L 33.15625 -82.34375 L 33.15625 -60.65625 L 76.828125 -60.65625 L 76.828125 -41.3125 L 33.15625 -41.3125 L 33.15625 -19.34375 L 84.421875 -19.34375 L 84.421875 0 L 13.125 0 L 13.125 -101.6875 Z M 82.484375 -101.6875 "/></g></g></g><g fill="#ffffff" fill-opacity="1"><g transform="translate(411.283936, 246.997227)"><g><path d="M 89.390625 -8.421875 C 86.816406 -6.304688 82.71875 -4.1875 77.09375 -2.0625 C 71.476562 0.0507812 65.351562 1.109375 58.71875 1.109375 C 48.125 1.109375 38.910156 -1.191406 31.078125 -5.796875 C 23.253906 -10.410156 17.269531 -16.609375 13.125 -24.390625 C 8.976562 -32.171875 6.90625 -40.710938 6.90625 -50.015625 C 6.90625 -60.242188 8.976562 -69.363281 13.125 -77.375 C 17.269531 -85.382812 23.070312 -91.625 30.53125 -96.09375 C 38 -100.5625 46.613281 -102.796875 56.375 -102.796875 C 62.539062 -102.796875 68.25 -101.96875 73.5 -100.3125 C 78.757812 -98.65625 83.367188 -96.582031 87.328125 -94.09375 L 79.453125 -75.171875 C 72.171875 -80.691406 64.707031 -83.453125 57.0625 -83.453125 C 51.90625 -83.453125 47.066406 -82.023438 42.546875 -79.171875 C 38.035156 -76.316406 34.441406 -72.425781 31.765625 -67.5 C 29.097656 -62.570312 27.765625 -57.113281 27.765625 -51.125 C 27.765625 -44.582031 29.007812 -38.847656 31.5 -33.921875 C 33.988281 -28.992188 37.535156 -25.144531 42.140625 -22.375 C 46.742188 -19.613281 52.132812 -18.234375 58.3125 -18.234375 C 63.28125 -18.234375 67.742188 -19.039062 71.703125 -20.65625 C 75.671875 -22.269531 78.804688 -24.179688 81.109375 -26.390625 Z M 89.390625 -8.421875 "/></g></g></g><g fill="#ffffff" fill-opacity="1"><g transform="translate(507.586966, 246.997227)"><g><path d="M 6.90625 -50.703125 C 6.90625 -59.921875 9.226562 -68.535156 13.875 -76.546875 C 18.53125 -84.554688 24.84375 -90.929688 32.8125 -95.671875 C 40.78125 -100.421875 49.414062 -102.796875 58.71875 -102.796875 C 68.019531 -102.796875 76.65625 -100.421875 84.625 -95.671875 C 92.59375 -90.929688 98.945312 -84.554688 103.6875 -76.546875 C 108.4375 -68.535156 110.8125 -59.921875 110.8125 -50.703125 C 110.8125 -41.304688 108.4375 -32.644531 103.6875 -24.71875 C 98.945312 -16.800781 92.59375 -10.515625 84.625 -5.859375 C 76.65625 -1.210938 68.019531 1.109375 58.71875 1.109375 C 49.320312 1.109375 40.660156 -1.210938 32.734375 -5.859375 C 24.816406 -10.515625 18.53125 -16.800781 13.875 -24.71875 C 9.226562 -32.644531 6.90625 -41.304688 6.90625 -50.703125 Z M 27.640625 -50.703125 C 27.640625 -44.804688 29.039062 -39.367188 31.84375 -34.390625 C 34.65625 -29.421875 38.476562 -25.484375 43.3125 -22.578125 C 48.15625 -19.679688 53.519531 -18.234375 59.40625 -18.234375 C 65.125 -18.234375 70.332031 -19.679688 75.03125 -22.578125 C 79.726562 -25.484375 83.410156 -29.398438 86.078125 -34.328125 C 88.753906 -39.265625 90.09375 -44.722656 90.09375 -50.703125 C 90.09375 -56.785156 88.707031 -62.3125 85.9375 -67.28125 C 83.175781 -72.257812 79.421875 -76.195312 74.671875 -79.09375 C 69.929688 -82 64.660156 -83.453125 58.859375 -83.453125 C 53.054688 -83.453125 47.78125 -82 43.03125 -79.09375 C 38.289062 -76.195312 34.539062 -72.257812 31.78125 -67.28125 C 29.019531 -62.3125 27.640625 -56.785156 27.640625 -50.703125 Z M 27.640625 -50.703125 "/></g></g></g><g fill="#ffffff" fill-opacity="1"><g transform="translate(625.306033, 246.997227)"><g><path d="M 117.859375 -105.84375 L 117.859375 0 L 97.828125 0 L 97.828125 -48.5 L 64.671875 -1.375 L 64.390625 -1.375 L 32.46875 -45.453125 L 32.46875 0 L 13.125 0 L 13.125 -105.84375 L 13.265625 -105.84375 L 64.796875 -32.75 L 117.578125 -105.84375 Z M 117.859375 -105.84375 "/></g></g></g><g fill="#ffffff" fill-opacity="1"><g transform="translate(756.289218, 246.997227)"><g><path d="M 43.9375 -101.6875 C 56.375 -101.6875 66 -98.625 72.8125 -92.5 C 79.632812 -86.375 83.046875 -78.015625 83.046875 -67.421875 C 83.046875 -61.347656 81.867188 -55.660156 79.515625 -50.359375 C 77.171875 -45.066406 73.347656 -40.710938 68.046875 -37.296875 C 62.753906 -33.890625 55.914062 -32.1875 47.53125 -32.1875 L 33.15625 -32.1875 L 33.15625 0 L 13.125 0 L 13.125 -101.6875 Z M 47.390625 -51.671875 C 51.171875 -51.671875 54.210938 -52.519531 56.515625 -54.21875 C 58.816406 -55.925781 60.472656 -57.929688 61.484375 -60.234375 C 62.492188 -62.546875 63 -64.757812 63 -66.875 C 63 -70.46875 61.941406 -73.941406 59.828125 -77.296875 C 57.710938 -80.660156 53.613281 -82.34375 47.53125 -82.34375 L 33.15625 -82.34375 L 33.15625 -51.671875 Z M 47.390625 -51.671875 "/></g></g></g><g fill="#ffffff" fill-opacity="1"><g transform="translate(844.164012, 246.997227)"><g><path d="M 63.421875 -19.890625 L 29.703125 -19.890625 L 21.421875 0 L 1.65625 0 L 47.53125 -105.703125 L 48.640625 -105.703125 L 94.515625 0 L 71.296875 0 Z M 56.78125 -36.75 L 46.984375 -61.484375 L 36.75 -36.75 Z M 56.78125 -36.75 "/></g></g></g><g fill="#ffffff" fill-opacity="1"><g transform="translate(940.328882, 246.997227)"><g><path d="M 67.984375 0 L 46.5625 -32.328125 L 33.15625 -32.328125 L 33.15625 0 L 13.125 0 L 13.125 -101.6875 L 43.9375 -101.6875 C 56.5625 -101.6875 66.347656 -98.625 73.296875 -92.5 C 80.253906 -86.375 83.734375 -78.015625 83.734375 -67.421875 C 83.734375 -61.160156 82.421875 -55.289062 79.796875 -49.8125 C 77.171875 -44.332031 73.140625 -40.023438 67.703125 -36.890625 L 91.328125 0 Z M 33.15625 -51.671875 L 47.390625 -51.671875 C 52.828125 -51.671875 56.785156 -53.257812 59.265625 -56.4375 C 61.753906 -59.613281 63 -63.046875 63 -66.734375 C 63 -70.421875 61.941406 -73.941406 59.828125 -77.296875 C 57.710938 -80.660156 53.613281 -82.34375 47.53125 -82.34375 L 33.15625 -82.34375 Z M 33.15625 -51.671875 "/></g></g></g><g fill="#ffffff" fill-opacity="1"><g transform="translate(1035.112094, 246.997227)"><g><path d="M 74.75 -101.6875 L 74.75 -82.34375 L 50.015625 -82.34375 L 50.015625 0 L 29.984375 0 L 29.984375 -82.34375 L 6.21875 -82.34375 L 6.21875 -101.6875 Z M 74.75 -101.6875 "/></g></g></g><g fill="#ffffff" fill-opacity="1"><g transform="translate(1116.078469, 246.997227)"><g><path d="M 104.734375 -101.6875 L 104.734375 4.140625 L 104.1875 4.140625 L 33.015625 -60.109375 L 33.4375 0 L 13.125 0 L 13.125 -105.703125 L 13.953125 -105.703125 L 84.96875 -40.484375 L 84.5625 -101.6875 Z M 104.734375 -101.6875 "/></g></g></g><g fill="#ffffff" fill-opacity="1"><g transform="translate(1233.935664, 246.997227)"><g><path d="M 82.484375 -101.6875 L 82.484375 -82.34375 L 33.15625 -82.34375 L 33.15625 -60.65625 L 76.828125 -60.65625 L 76.828125 -41.3125 L 33.15625 -41.3125 L 33.15625 -19.34375 L 84.421875 -19.34375 L 84.421875 0 L 13.125 0 L 13.125 -101.6875 Z M 82.484375 -101.6875 "/></g></g></g><g fill="#ffffff" fill-opacity="1"><g transform="translate(1325.955496, 246.997227)"><g><path d="M 67.984375 0 L 46.5625 -32.328125 L 33.15625 -32.328125 L 33.15625 0 L 13.125 0 L 13.125 -101.6875 L 43.9375 -101.6875 C 56.5625 -101.6875 66.347656 -98.625 73.296875 -92.5 C 80.253906 -86.375 83.734375 -78.015625 83.734375 -67.421875 C 83.734375 -61.160156 82.421875 -55.289062 79.796875 -49.8125 C 77.171875 -44.332031 73.140625 -40.023438 67.703125 -36.890625 L 91.328125 0 Z M 33.15625 -51.671875 L 47.390625 -51.671875 C 52.828125 -51.671875 56.785156 -53.257812 59.265625 -56.4375 C 61.753906 -59.613281 63 -63.046875 63 -66.734375 C 63 -70.421875 61.941406 -73.941406 59.828125 -77.296875 C 57.710938 -80.660156 53.613281 -82.34375 47.53125 -82.34375 L 33.15625 -82.34375 Z M 33.15625 -51.671875 "/></g></g></g><path fill="#ffffff" d="M 260.527344 263.175781 C 223.507812 247.230469 159.554688 251.628906 125.835938 273.617188 C 113.558594 258.410156 117.773438 221.761719 131.882812 217.546875 C 122.171875 180.347656 141.597656 100.820312 94.5 98.253906 C 75.625 118.410156 63.898438 73.699219 93.949219 84.511719 C 156.066406 90.492188 134.410156 167.808594 148.925781 213.699219 C 200.96875 202.335938 288.199219 227.257812 270.421875 241.183594 C 218.746094 227.257812 154.972656 210.582031 131.882812 258.226562 C 157.539062 232.574219 252.464844 237.152344 260.527344 263.171875 Z M 260.527344 263.175781 " fill-opacity="1" fill-rule="nonzero"/><path fill="#ffffff" d="M 256.679688 215.898438 C 297.910156 181.265625 390.90625 80.332031 145.078125 129.589844 C 325.945312 119.695312 302.308594 135.089844 256.679688 215.898438 Z M 256.679688 215.898438 " fill-opacity="1" fill-rule="nonzero"/><path fill="#ffffff" d="M 287.464844 160.925781 C 247.148438 147.546875 198.585938 142.417969 154.421875 151.03125 C 196.023438 148.097656 244.21875 158.359375 283.066406 171.371094 Z M 287.464844 160.925781 " fill-opacity="1" fill-rule="nonzero"/><path fill="#ffffff" d="M 274.269531 186.210938 L 268.222656 197.757812 C 240.917969 180.164062 203.167969 172.46875 164.320312 174.667969 C 193.089844 159.824219 229.558594 165.324219 274.273438 186.210938 Z M 274.269531 186.210938 " fill-opacity="1" fill-rule="nonzero"/><path fill="#ffffff" d="M 285.265625 132.890625 L 269.324219 125.742188 C 246.234375 153.597656 234.136719 182.546875 226.441406 212.601562 C 241.101562 184.382812 257.410156 158.910156 285.265625 132.890625 Z M 285.265625 132.890625 " fill-opacity="1" fill-rule="nonzero"/><path fill="#ffffff" d="M 252.28125 122.996094 L 238.535156 122.445312 C 217.644531 147.734375 208.847656 173.570312 208.847656 199.957031 C 216.726562 174.304688 229.007812 148.648438 252.28125 122.996094 Z M 252.28125 122.996094 " fill-opacity="1" fill-rule="nonzero"/><path fill="#ffffff" d="M 213.796875 123.542969 L 200.601562 124.09375 C 192.175781 145.898438 185.941406 166.605469 186.859375 189.511719 C 189.792969 166.421875 200.421875 146.082031 213.796875 123.542969 Z M 213.796875 123.542969 " fill-opacity="1" fill-rule="nonzero"/><path stroke-linecap="round" transform="matrix(-0.194369, 0, 0, 0.194358, 268.222911, 153.742461)" fill-opacity="1" fill="#ffffff" fill-rule="nonzero" stroke-linejoin="round" d="M 102.335567 514.652629 C 85.313352 514.893807 69.436671 519.737468 56.695131 529.625771 C 19.676337 558.366165 23.133032 618.881778 64.432501 664.705623 C 105.711874 710.529469 169.298989 724.417309 206.33788 695.676915 C 243.376772 666.936521 239.89998 606.380712 198.620607 560.556867 C 171.509666 530.489993 134.832522 514.190371 102.335567 514.652629 Z M 131.456215 572.053024 C 145.684937 571.831944 161.742492 579.549645 173.619858 593.738958 C 191.68712 615.364597 193.234594 643.90401 177.016262 657.47028 C 160.79793 671.016451 132.943397 664.484544 114.856038 642.879003 C 96.788777 621.253363 95.2614 592.673755 111.479731 579.127583 C 117.066716 574.464806 124.000203 572.173613 131.456215 572.053024 Z M 131.456215 572.053024 " stroke="#fffdff" stroke-width="9.127" stroke-opacity="1" stroke-miterlimit="4"/><path stroke-linecap="round" transform="matrix(-0.194369, 0, 0, 0.194358, 268.222911, 153.742461)" fill-opacity="1" fill="#ffffff" fill-rule="nonzero" stroke-linejoin="round" d="M 607.214044 514.652629 C 590.19183 514.893807 574.315148 519.737468 561.593706 529.625771 C 524.554814 558.366165 528.01151 618.881778 569.310979 664.705623 C 610.590351 710.529469 674.177466 724.417309 711.216358 695.676915 C 748.25525 666.936521 744.798554 606.380712 703.499085 560.556867 C 676.388144 530.489993 639.710999 514.190371 607.214044 514.652629 Z M 636.334692 572.053024 C 650.563415 571.831944 666.62097 579.549645 678.498336 593.738958 C 696.565597 615.364597 698.113071 643.90401 681.89474 657.47028 C 665.676408 671.016451 637.821875 664.484544 619.734516 642.879003 C 601.667254 621.253363 600.159974 592.673755 616.358209 579.127583 C 621.945193 574.464806 628.878681 572.173613 636.334692 572.053024 Z M 636.334692 572.053024 " stroke="#fffdff" stroke-width="9.127" stroke-opacity="1" stroke-miterlimit="4"/></svg>